<?xml version="1.0" encoding="UTF-8"?>
<!DOCTYPE svg PUBLIC "-//W3C//DTD SVG 1.1//EN" "http://www.w3.org/Graphics/SVG/1.1/DTD/svg11.dtd">
<svg xmlns="http://www.w3.org/2000/svg" version="1.1" width="300px" height="252px" style="shape-rendering:geometricPrecision; text-rendering:geometricPrecision; image-rendering:optimizeQuality; fill-rule:evenodd; clip-rule:evenodd" xmlns:xlink="http://www.w3.org/1999/xlink">
<g><path style="opacity:0.724" fill="#eef0ee" d="M 135.5,-0.5 C 144.167,-0.5 152.833,-0.5 161.5,-0.5C 208.242,6.63376 241.742,31.6338 262,74.5C 277.878,115.809 274.378,155.476 251.5,193.5C 250.5,193.833 249.833,194.5 249.5,195.5C 248.5,195.833 247.833,196.5 247.5,197.5C 245.212,201.456 242.212,204.789 238.5,207.5C 229.983,207.826 221.65,207.493 213.5,206.5C 221.84,206.666 230.173,206.5 238.5,206C 270.573,166.726 277.74,123.226 260,75.5C 232.985,21.2351 189.151,-2.93158 128.5,3C 74.2293,15.6041 41.0626,49.1041 29,103.5C 23.7343,142.525 33.901,176.858 59.5,206.5C 76.662,207.827 93.662,207.827 110.5,206.5C 110.5,205.833 110.833,205.5 111.5,205.5C 112.708,206.234 114.041,206.567 115.5,206.5C 116.671,207.345 118.005,208.011 119.5,208.5C 99.6709,209.662 79.6709,209.829 59.5,209C 55.5587,205.562 52.2254,201.729 49.5,197.5C 49.0679,196.29 48.4013,195.29 47.5,194.5C 47.5,193.833 47.1667,193.5 46.5,193.5C 25.7903,161.378 20.2903,126.712 30,89.5C 46.9812,38.0081 82.1478,8.00812 135.5,-0.5 Z"/></g>
<g><path style="opacity:1" fill="#053213" d="M 213.5,206.5 C 205.16,206.666 196.827,206.5 188.5,206C 224.745,186.026 241.578,155.192 239,113.5C 232.663,75.1666 211.163,49.6666 174.5,37C 129.915,26.5239 95.0821,40.3572 70,78.5C 49.8629,119.837 55.3629,157.337 86.5,191C 93.7061,197.434 101.706,202.601 110.5,206.5C 93.662,207.827 76.662,207.827 59.5,206.5C 33.901,176.858 23.7343,142.525 29,103.5C 41.0626,49.1041 74.2293,15.6041 128.5,3C 189.151,-2.93158 232.985,21.2351 260,75.5C 277.74,123.226 270.573,166.726 238.5,206C 230.173,206.5 221.84,206.666 213.5,206.5 Z"/></g>
<g><path style="opacity:1" fill="#e5eae6" d="M 146.5,10.5 C 154.837,10.1432 158.337,14.1432 157,22.5C 153.908,29.0695 149.574,30.0695 144,25.5C 141.448,19.8495 142.282,14.8495 146.5,10.5 Z"/></g>
<g><path style="opacity:1" fill="#e8ece9" d="M 131.5,11.5 C 139.168,11.507 141.168,14.8403 137.5,21.5C 138.833,23.5 140.167,25.5 141.5,27.5C 139.833,28.8333 138.167,28.8333 136.5,27.5C 132.662,20.5418 130.995,21.2085 131.5,29.5C 130.167,29.5 128.833,29.5 127.5,29.5C 126.688,23.8565 126.021,18.1898 125.5,12.5C 127.735,12.7947 129.735,12.4614 131.5,11.5 Z"/></g>
<g><path style="opacity:0.999" fill="#e7ebe8" d="M 165.5,12.5 C 167.467,12.2606 169.301,12.5939 171,13.5C 171.904,19.1354 172.404,24.802 172.5,30.5C 171.167,30.5 169.833,30.5 168.5,30.5C 168.5,29.1667 168.5,27.8333 168.5,26.5C 164.636,26.5924 160.97,27.0924 157.5,28C 160.32,22.8583 162.987,17.6916 165.5,12.5 Z"/></g>
<g><path style="opacity:1" fill="#0d3316" d="M 147.5,14.5 C 149.167,14.5 150.833,14.5 152.5,14.5C 152.665,17.5184 152.498,20.5184 152,23.5C 149.978,24.9909 148.312,24.6576 147,22.5C 146.398,19.7795 146.565,17.1128 147.5,14.5 Z"/></g>
<g><path style="opacity:0.999" fill="#eef1ee" d="M 179.5,15.5 C 191.317,17.5374 193.651,23.3707 186.5,33C 182.464,33.8499 178.631,33.3499 175,31.5C 175.769,26.0178 177.269,20.6845 179.5,15.5 Z"/></g>
<g><path style="opacity:1" fill="#062f11" d="M 130.5,15.5 C 132.167,15.5 133.833,15.5 135.5,15.5C 135.616,18.9103 133.95,20.2436 130.5,19.5C 130.5,18.1667 130.5,16.8333 130.5,15.5 Z"/></g>
<g><path style="opacity:1" fill="#ecefed" d="M 103.5,19.5 C 105.144,19.2865 106.644,19.6198 108,20.5C 109.014,24.3775 110.514,28.0442 112.5,31.5C 113.941,30.696 115.441,30.0294 117,29.5C 118.28,29.6135 119.113,30.2801 119.5,31.5C 116.485,33.4498 113.319,35.1165 110,36.5C 107.277,31.0526 105.11,25.386 103.5,19.5 Z"/></g>
<g><path style="opacity:1" fill="#0c2e14" d="M 166.5,17.5 C 167.451,18.9187 167.784,20.5853 167.5,22.5C 166.448,22.6495 165.448,22.4828 164.5,22C 165.582,20.6703 166.249,19.1703 166.5,17.5 Z"/></g>
<g><path style="opacity:1" fill="#093314" d="M 182.5,19.5 C 186.254,20.8654 187.421,23.5321 186,27.5C 183.768,31.063 181.602,31.2297 179.5,28C 180.41,25.1005 181.41,22.2672 182.5,19.5 Z"/></g>
<g><path style="opacity:1" fill="#eaeeeb" d="M 196.5,23.5 C 202.069,22.7465 205.403,25.0798 206.5,30.5C 205.167,30.5 203.833,30.5 202.5,30.5C 202.55,28.4099 201.55,27.0766 199.5,26.5C 199.167,27 198.833,27.5 198.5,28C 199.608,30.1124 201.108,31.9458 203,33.5C 203.687,35.9203 203.187,38.087 201.5,40C 194.622,41.7414 190.622,39.2414 189.5,32.5C 190.833,32.5 192.167,32.5 193.5,32.5C 193.5,35.8333 195.167,37.5 198.5,37.5C 198.649,36.448 198.483,35.448 198,34.5C 192.774,31.3072 192.274,27.6405 196.5,23.5 Z"/></g>
<g><path style="opacity:1" fill="#e9edea" d="M 93.5,24.5 C 99.004,27.3234 103.671,31.3234 107.5,36.5C 105.641,39.0186 103.641,39.0186 101.5,36.5C 100.5,37 99.5,37.5 98.5,38C 98.0116,40.1761 97.0116,42.0094 95.5,43.5C 93.4163,38.7697 92.083,33.7697 91.5,28.5C 91.8029,26.8857 92.4695,25.5523 93.5,24.5 Z"/></g>
<g><path style="opacity:1" fill="#0f3117" d="M 95.5,30.5 C 98.4073,31.614 98.9073,33.2807 97,35.5C 95.9914,33.9751 95.4914,32.3084 95.5,30.5 Z"/></g>
<g><path style="opacity:0.999" fill="#e9edea" d="M 79.5,33.5 C 85.211,32.3797 88.0444,34.713 88,40.5C 89.7448,41.9557 91.5781,43.289 93.5,44.5C 91.5353,48.2151 89.202,48.3817 86.5,45C 85.0563,44.2195 83.723,44.3861 82.5,45.5C 83.8333,47.1667 85.1667,48.8333 86.5,50.5C 86.1131,51.7199 85.2798,52.3865 84,52.5C 79.8678,48.6973 76.0345,44.5306 72.5,40C 75.2879,38.2814 77.6212,36.1148 79.5,33.5 Z"/></g>
<g><path style="opacity:0.999" fill="#ebeeec" d="M 220.5,38.5 C 222.912,38.244 224.579,39.244 225.5,41.5C 223.273,46.9539 220.773,52.2872 218,57.5C 217.333,56.8333 216.667,56.1667 216,55.5C 216.046,53.6874 215.88,52.0207 215.5,50.5C 213.751,48.4686 211.751,48.1353 209.5,49.5C 208.5,49.1667 207.833,48.5 207.5,47.5C 211.688,44.2435 216.021,41.2435 220.5,38.5 Z"/></g>
<g><path style="opacity:1" fill="#092d12" d="M 79.5,37.5 C 80.8333,37.5 82.1667,37.5 83.5,37.5C 83.756,39.9124 82.756,41.5791 80.5,42.5C 78.2957,41.218 77.9624,39.5514 79.5,37.5 Z"/></g>
<g><path style="opacity:1" fill="#e8ece9" d="M 68.5,43.5 C 71.8756,46.6106 75.3756,49.6106 79,52.5C 79.9714,58.2069 77.6381,61.8736 72,63.5C 67.3871,60.72 63.2204,57.3867 59.5,53.5C 60.5,52.5 61.5,51.5 62.5,50.5C 65.3174,52.8167 67.9841,55.3167 70.5,58C 74.6667,59.1667 76.1667,57.6667 75,53.5C 71.8699,51.372 69.0366,48.872 66.5,46C 67.3805,45.2917 68.0472,44.4584 68.5,43.5 Z"/></g>
<g><path style="opacity:1" fill="#0f3218" d="M 218.5,43.5 C 219.522,44.8917 219.189,46.225 217.5,47.5C 216.692,47.1924 216.025,46.6924 215.5,46C 216.571,45.1482 217.571,44.3149 218.5,43.5 Z"/></g>
<g><path style="opacity:1" fill="#e8ece9" d="M 231.5,47.5 C 232.812,48.1451 233.812,49.1451 234.5,50.5C 231.804,53.2733 228.971,55.94 226,58.5C 224.746,62.1114 225.912,63.6114 229.5,63C 232.5,60.5 235.5,58 238.5,55.5C 239.287,56.2421 239.953,57.0754 240.5,58C 237.688,60.9015 234.688,63.5681 231.5,66C 224.321,67.4761 220.821,64.6428 221,57.5C 224.343,53.9904 227.843,50.657 231.5,47.5 Z"/></g>
<g><path style="opacity:1" fill="#eaeeeb" d="M 55.5,59.5 C 60.836,58.1845 63.5026,60.1845 63.5,65.5C 66.2706,65.4207 68.9373,65.9207 71.5,67C 70.3816,68.0736 69.3816,69.2402 68.5,70.5C 65.6807,69.0297 63.014,69.1964 60.5,71C 62.0905,72.0458 63.5905,73.2125 65,74.5C 65.3008,77.0915 64.1341,77.9248 61.5,77C 57.2868,74.4 53.2868,71.5667 49.5,68.5C 51.5258,65.4822 53.5258,62.4822 55.5,59.5 Z"/></g>
<g><path style="opacity:1" fill="#ecefed" d="M 241.5,61.5 C 242.496,61.4142 243.329,61.7476 244,62.5C 245.455,65.9121 247.288,69.0788 249.5,72C 248.892,72.8699 248.059,73.3699 247,73.5C 245.832,72.4911 244.665,71.4911 243.5,70.5C 239.744,73.2168 235.744,75.0501 231.5,76C 230.167,75 230.167,74 231.5,73C 234.585,71.0404 237.752,69.2071 241,67.5C 240.744,65.3977 240.911,63.3977 241.5,61.5 Z"/></g>
<g><path style="opacity:1" fill="#0d3115" d="M 56.5,63.5 C 57.5,63.5 58.5,63.5 59.5,63.5C 59.92,68.9794 58.2533,70.1461 54.5,67C 55.305,65.8873 55.9717,64.7206 56.5,63.5 Z"/></g>
<g><path style="opacity:1" fill="#ebeeec" d="M 247.5,76.5 C 249.665,76.1159 251.332,76.7826 252.5,78.5C 250.678,80.0101 248.678,81.3434 246.5,82.5C 248.03,87.1185 250.697,87.7851 254.5,84.5C 255.614,85.723 255.781,87.0563 255,88.5C 250.35,90.4958 245.684,92.4958 241,94.5C 239.699,93.9019 238.865,92.9019 238.5,91.5C 240.667,90.0521 243,88.8854 245.5,88C 244.43,83.0522 241.93,82.2188 238,85.5C 236.5,85.3333 235.667,84.5 235.5,83C 239.374,80.5636 243.374,78.3969 247.5,76.5 Z"/></g>
<g><path style="opacity:1" fill="#e7ebe8" d="M 41.5,85.5 C 47.5,85.5 53.5,85.5 59.5,85.5C 60.0415,89.2947 58.3748,91.2947 54.5,91.5C 52.9546,94.1974 53.6213,96.1974 56.5,97.5C 56.0814,98.6721 55.4147,99.6721 54.5,100.5C 50.1409,96.9739 45.6409,93.6405 41,90.5C 41.0187,88.8925 41.1854,87.2259 41.5,85.5 Z"/></g>
<g><path style="opacity:1" fill="#203b25" d="M 46.5,90.5 C 48.0348,89.2121 49.7015,89.2121 51.5,90.5C 49.9626,92.9302 48.296,92.9302 46.5,90.5 Z"/></g>
<g><path style="opacity:1" fill="#e9edea" d="M 247.5,94.5 C 256.156,92.7041 259.989,96.0375 259,104.5C 253.125,111.001 247.458,111.001 242,104.5C 241.333,102.833 241.333,101.167 242,99.5C 243.73,97.5981 245.563,95.9314 247.5,94.5 Z"/></g>
<g><path style="opacity:1" fill="#e7ece8" d="M 38.5,96.5 C 41.6032,98.4233 44.6032,100.59 47.5,103C 49.8127,103.662 52.146,104.162 54.5,104.5C 54.5,105.833 54.5,107.167 54.5,108.5C 48.4238,107.175 42.4238,107.508 36.5,109.5C 36.238,108.022 36.5713,106.689 37.5,105.5C 43.2556,104.793 43.7556,103.126 39,100.5C 38.51,99.2068 38.3433,97.8734 38.5,96.5 Z"/></g>
<g><path style="opacity:1" fill="#0d3517" d="M 248.5,98.5 C 250.857,98.3367 253.19,98.5034 255.5,99C 257.013,101.454 256.346,103.121 253.5,104C 250.854,104.497 248.187,104.664 245.5,104.5C 245.028,101.642 246.028,99.6421 248.5,98.5 Z"/></g>
<g><path style="opacity:0.999" fill="#eff2f0" d="M 256.5,111.5 C 258.167,111.5 259.833,111.5 261.5,111.5C 261.666,115.514 261.499,119.514 261,123.5C 257.87,126.122 254.703,126.122 251.5,123.5C 249.5,124.5 247.5,125.5 245.5,126.5C 244.386,125.277 244.219,123.944 245,122.5C 246.753,121.373 248.587,120.373 250.5,119.5C 251.386,118.675 251.719,117.675 251.5,116.5C 249.167,116.5 246.833,116.5 244.5,116.5C 244.5,115.167 244.5,113.833 244.5,112.5C 248.702,112.817 252.702,112.483 256.5,111.5 Z"/></g>
<g><path style="opacity:1" fill="#edf0ee" d="M 35.5,114.5 C 41.1667,114.5 46.8333,114.5 52.5,114.5C 52.7135,116.144 52.3802,117.644 51.5,119C 39.3196,123.655 39.6529,125.488 52.5,124.5C 52.5,125.5 52.5,126.5 52.5,127.5C 46.8333,127.5 41.1667,127.5 35.5,127.5C 35.2148,125.712 35.5481,124.045 36.5,122.5C 47.4023,118.279 47.069,116.613 35.5,117.5C 35.5,116.5 35.5,115.5 35.5,114.5 Z"/></g>
<g><path style="opacity:1" fill="#062f11" d="M 254.5,116.5 C 255.833,116.5 257.167,116.5 258.5,116.5C 258.5,118.167 258.5,119.833 258.5,121.5C 257.167,121.5 255.833,121.5 254.5,121.5C 254.5,119.833 254.5,118.167 254.5,116.5 Z"/></g>
<g><path style="opacity:1" fill="#eff2ef" d="M 244.5,129.5 C 250.167,129.5 255.833,129.5 261.5,129.5C 261.5,130.833 261.5,132.167 261.5,133.5C 255.833,133.5 250.167,133.5 244.5,133.5C 244.5,132.167 244.5,130.833 244.5,129.5 Z"/></g>
<g><path style="opacity:1" fill="#e8ece9" d="M 49.5,129.5 C 50.5,129.5 51.5,129.5 52.5,129.5C 52.9272,133.824 53.2605,138.158 53.5,142.5C 47.828,142.76 42.1613,143.093 36.5,143.5C 36.3542,139.481 36.0209,135.481 35.5,131.5C 36.8333,131.5 38.1667,131.5 39.5,131.5C 39.5,134.167 39.5,136.833 39.5,139.5C 40.5,139.5 41.5,139.5 42.5,139.5C 42.5,137.167 42.5,134.833 42.5,132.5C 45.7794,133.031 47.1128,135.031 46.5,138.5C 47.5,138.5 48.5,138.5 49.5,138.5C 49.5,135.5 49.5,132.5 49.5,129.5 Z"/></g>
<g><path style="opacity:1" fill="#ebefec" d="M 257.5,137.5 C 258.5,137.5 259.5,137.5 260.5,137.5C 260.167,141.5 259.833,145.5 259.5,149.5C 258.167,149.5 256.833,149.5 255.5,149.5C 255.33,148.178 255.663,147.011 256.5,146C 252.304,144.523 247.971,143.689 243.5,143.5C 243.5,142.167 243.5,140.833 243.5,139.5C 248.152,139.998 252.819,140.331 257.5,140.5C 257.5,139.5 257.5,138.5 257.5,137.5 Z"/></g>
<g><path style="opacity:1" fill="#eaeeeb" d="M 52.5,143.5 C 54.0257,144.105 55.0257,145.271 55.5,147C 53.6499,149.018 51.6499,150.851 49.5,152.5C 52.0865,153.48 54.7531,153.813 57.5,153.5C 57.5,154.833 57.5,156.167 57.5,157.5C 52.2235,158.444 47.0568,159.777 42,161.5C 40.4222,160.289 40.2555,158.955 41.5,157.5C 43.2251,156.985 44.8917,156.318 46.5,155.5C 44.228,154.515 41.8947,153.681 39.5,153C 38.269,151.817 38.269,150.651 39.5,149.5C 41.7676,150.544 44.1009,150.711 46.5,150C 48.7059,147.963 50.7059,145.797 52.5,143.5 Z"/></g>
<g><path style="opacity:1" fill="#ecefec" d="M 240.5,152.5 C 245.784,155.085 251.118,155.085 256.5,152.5C 257.167,152.833 257.833,153.167 258.5,153.5C 257.754,154.736 257.421,156.07 257.5,157.5C 250.582,156.656 249.415,158.323 254,162.5C 254.667,163.833 254.667,165.167 254,166.5C 250.464,161.788 245.964,158.454 240.5,156.5C 239.374,155.192 239.374,153.858 240.5,152.5 Z"/></g>
<g><path style="opacity:1" fill="#e1e4e0" d="M 213.5,206.5 C 221.65,207.493 229.983,207.826 238.5,207.5C 219.007,208.497 199.34,208.83 179.5,208.5C 179.833,207.833 180.167,207.167 180.5,206.5C 183.675,206.497 186.508,205.497 189,203.5C 191.457,178.403 187.29,154.569 176.5,132C 176.667,131.5 176.833,131 177,130.5C 178.517,132.24 180.017,133.906 181.5,135.5C 189.216,156.448 193.716,178.115 195,200.5C 201.557,196.311 207.39,191.311 212.5,185.5C 216.899,181.432 220.565,176.765 223.5,171.5C 225.083,169.337 226.416,167.004 227.5,164.5C 229.89,159.664 231.89,154.664 233.5,149.5C 234.371,146.888 235.037,144.221 235.5,141.5C 235.5,140.5 235.5,139.5 235.5,138.5C 236.477,135.713 236.81,132.713 236.5,129.5C 237.833,124.833 237.833,120.167 236.5,115.5C 236.816,112.022 236.316,108.688 235,105.5C 234.329,106.252 233.496,106.586 232.5,106.5C 230.645,106.728 229.812,106.061 230,104.5C 231.299,104.966 232.799,104.966 234.5,104.5C 234.167,102.5 233.833,100.5 233.5,98.5C 232.434,96.2986 231.767,93.9653 231.5,91.5C 229.656,87.1362 227.323,83.1362 224.5,79.5C 224.34,77.847 223.674,76.5137 222.5,75.5C 219.229,69.8983 215.229,64.8983 210.5,60.5C 206.742,56.4078 202.409,53.0745 197.5,50.5C 182.768,39.4818 166.101,34.4818 147.5,35.5C 129.453,35.0725 113.119,40.0725 98.5,50.5C 93.5399,53.7923 89.2066,57.7923 85.5,62.5C 80.3884,66.0693 76.7217,70.736 74.5,76.5C 73.0937,76.9731 72.427,77.9731 72.5,79.5C 69.9986,82.3573 68.332,85.6907 67.5,89.5C 65.8271,91.576 64.9938,93.9094 65,96.5C 67.9365,95.1834 70.7699,95.1834 73.5,96.5C 71.8793,96.7869 70.8793,97.7869 70.5,99.5C 68.2338,100.314 65.9005,100.814 63.5,101C 64.428,101.388 65.0946,102.055 65.5,103C 64.5176,104.054 63.3509,104.554 62,104.5C 61.5172,105.448 61.3505,106.448 61.5,107.5C 60.5696,114.777 60.2363,122.11 60.5,129.5C 60.5,130.5 60.5,131.5 60.5,132.5C 60.2053,134.735 60.5386,136.735 61.5,138.5C 61.2148,140.288 61.5481,141.955 62.5,143.5C 76.3707,139.231 90.0374,134.397 103.5,129C 111.872,125.398 119.706,120.898 127,115.5C 127.667,113.833 127.667,112.167 127,110.5C 124.72,109.914 122.553,109.08 120.5,108C 127.816,106.969 130.316,109.803 128,116.5C 120.576,122.467 112.409,127.3 103.5,131C 90.3643,136.321 77.1976,141.487 64,146.5C 66.0233,159.546 71.5233,170.879 80.5,180.5C 80.7376,182.404 81.7376,183.738 83.5,184.5C 91.4375,193.457 100.771,200.457 111.5,205.5C 110.833,205.5 110.5,205.833 110.5,206.5C 101.706,202.601 93.7061,197.434 86.5,191C 55.3629,157.337 49.8629,119.837 70,78.5C 95.0821,40.3572 129.915,26.5239 174.5,37C 211.163,49.6666 232.663,75.1666 239,113.5C 241.578,155.192 224.745,186.026 188.5,206C 196.827,206.5 205.16,206.666 213.5,206.5 Z"/></g>
<g><path style="opacity:1" fill="#884b20" d="M 200.5,147.5 C 208.917,154.914 216.584,162.914 223.5,171.5C 220.565,176.765 216.899,181.432 212.5,185.5C 208.754,176.399 204.088,167.732 198.5,159.5C 198.736,158.098 199.07,156.598 199.5,155C 198.756,152.845 197.756,150.845 196.5,149C 196.667,148.5 196.833,148 197,147.5C 197.419,148.672 198.085,149.672 199,150.5C 199.617,149.551 199.451,148.718 198.5,148C 199.094,147.536 199.761,147.369 200.5,147.5 Z"/></g>
<g><path style="opacity:1" fill="#d0ad6a" d="M 177.5,118.5 C 182.63,119.978 187.297,122.311 191.5,125.5C 204.944,137.273 216.944,150.273 227.5,164.5C 226.416,167.004 225.083,169.337 223.5,171.5C 216.584,162.914 208.917,154.914 200.5,147.5C 192.435,138.107 184.768,128.44 177.5,118.5 Z"/></g>
<g><path style="opacity:1" fill="#19140b" d="M 181.5,135.5 C 187.646,143.111 193.312,151.111 198.5,159.5C 204.088,167.732 208.754,176.399 212.5,185.5C 207.39,191.311 201.557,196.311 195,200.5C 193.716,178.115 189.216,156.448 181.5,135.5 Z"/></g>
<g><path style="opacity:1" fill="#e4e205" d="M 141.5,127.5 C 141.5,128.167 141.5,128.833 141.5,129.5C 131.495,144.345 119.495,157.511 105.5,169C 97.9247,173.943 90.5914,179.109 83.5,184.5C 81.7376,183.738 80.7376,182.404 80.5,180.5C 104.628,167.259 124.961,149.592 141.5,127.5 Z"/></g>
<g><path style="opacity:1" fill="#f69f78" d="M 191.5,125.5 C 204.62,132.896 217.954,140.063 231.5,147C 232.066,147.995 232.733,148.828 233.5,149.5C 231.89,154.664 229.89,159.664 227.5,164.5C 216.944,150.273 204.944,137.273 191.5,125.5 Z"/></g>
<g><path style="opacity:1" fill="#19140a" d="M 175.5,126.5 C 176.167,126.5 176.833,126.5 177.5,126.5C 178.785,129.474 180.118,132.474 181.5,135.5C 180.017,133.906 178.517,132.24 177,130.5C 176.833,131 176.667,131.5 176.5,132C 187.29,154.569 191.457,178.403 189,203.5C 186.508,205.497 183.675,206.497 180.5,206.5C 158.833,206.5 137.167,206.5 115.5,206.5C 114.041,206.567 112.708,206.234 111.5,205.5C 100.771,200.457 91.4375,193.457 83.5,184.5C 90.5914,179.109 97.9247,173.943 105.5,169C 119.495,157.511 131.495,144.345 141.5,129.5C 152.833,129.5 164.167,129.5 175.5,129.5C 175.5,128.5 175.5,127.5 175.5,126.5 Z"/></g>
<g><path style="opacity:1" fill="#bcbfba" d="M 91.5,128.5 C 91.8333,128.5 92.1667,128.5 92.5,128.5C 92.5,129.5 92.5,130.5 92.5,131.5C 90.901,131.768 89.5676,131.434 88.5,130.5C 88.5,130.167 88.5,129.833 88.5,129.5C 89.791,129.737 90.791,129.404 91.5,128.5 Z"/></g>
<g><path style="opacity:1" fill="#7eb736" d="M 88.5,129.5 C 88.5,129.833 88.5,130.167 88.5,130.5C 79.6118,133.574 70.6118,136.241 61.5,138.5C 60.5386,136.735 60.2053,134.735 60.5,132.5C 65.3767,132.36 69.8767,131.027 74,128.5C 74.5613,129.022 75.228,129.355 76,129.5C 78.7906,128.594 81.6239,127.927 84.5,127.5C 84.8333,127.5 85.1667,127.5 85.5,127.5C 86.4959,127.586 87.3292,127.252 88,126.5C 88.4828,127.448 88.6495,128.448 88.5,129.5 Z"/></g>
<g><path style="opacity:1" fill="#a8a49f" d="M 142.5,126.5 C 143.167,126.5 143.833,126.5 144.5,126.5C 154.5,126.5 164.5,126.5 174.5,126.5C 174.833,126.5 175.167,126.5 175.5,126.5C 175.5,127.5 175.5,128.5 175.5,129.5C 164.167,129.5 152.833,129.5 141.5,129.5C 141.5,128.833 141.5,128.167 141.5,127.5C 142.167,127.5 142.5,127.167 142.5,126.5 Z"/></g>
<g><path style="opacity:1" fill="#7a3117" d="M 176.5,110.5 C 177.833,110.833 179.167,111.167 180.5,111.5C 181.568,112.434 182.901,112.768 184.5,112.5C 198.65,120.778 213.316,128.111 228.5,134.5C 230.635,136.071 232.968,137.404 235.5,138.5C 235.5,139.5 235.5,140.5 235.5,141.5C 234.127,141.657 232.793,141.49 231.5,141C 215.749,131.926 199.749,123.259 183.5,115C 181.444,114.689 179.444,114.189 177.5,113.5C 176.614,112.675 176.281,111.675 176.5,110.5 Z"/></g>
<g><path style="opacity:1" fill="#8e582b" d="M 79.5,116.5 C 80.1667,116.5 80.8333,116.5 81.5,116.5C 81.5544,118.632 82.5544,119.965 84.5,120.5C 83.4537,122.785 83.4537,125.118 84.5,127.5C 81.6239,127.927 78.7906,128.594 76,129.5C 75.228,129.355 74.5613,129.022 74,128.5C 69.8767,131.027 65.3767,132.36 60.5,132.5C 60.5,131.5 60.5,130.5 60.5,129.5C 63.2777,128.032 66.2777,127.199 69.5,127C 72.5859,125.907 75.0859,124.074 77,121.5C 78.6804,122.603 80.1804,122.27 81.5,120.5C 80.3698,119.378 79.7031,118.044 79.5,116.5 Z"/></g>
<g><path style="opacity:1" fill="#657c3a" d="M 215.5,122.5 C 216.756,122.904 217.923,123.571 219,124.5C 220.333,123.833 221.667,123.167 223,122.5C 223.5,122.833 224,123.167 224.5,123.5C 222.855,124.696 221.189,125.696 219.5,126.5C 217.833,126.5 216.167,126.5 214.5,126.5C 214.232,124.901 214.566,123.568 215.5,122.5 Z"/></g>
<g><path style="opacity:1" fill="#1f2617" d="M 197.5,105.5 C 198.167,105.833 198.833,106.167 199.5,106.5C 200.935,108.665 200.269,110.165 197.5,111C 199.303,111.637 200.636,112.803 201.5,114.5C 202.616,110.276 204.949,109.443 208.5,112C 207.5,113.667 206.167,115 204.5,116C 205.448,116.483 206.448,116.649 207.5,116.5C 207.649,117.552 207.483,118.552 207,119.5C 206.282,118.549 205.449,118.383 204.5,119C 206.145,121.925 208.145,122.092 210.5,119.5C 211.192,120.025 211.692,120.692 212,121.5C 212.333,121.167 212.667,120.833 213,120.5C 214.142,118.223 214.642,115.89 214.5,113.5C 215.95,114.85 216.617,116.516 216.5,118.5C 216.167,119.833 215.833,121.167 215.5,122.5C 214.566,123.568 214.232,124.901 214.5,126.5C 216.167,126.5 217.833,126.5 219.5,126.5C 222.702,126.629 225.035,128.129 226.5,131C 228.167,131.333 229.833,131.667 231.5,132C 230.309,132.698 229.309,133.531 228.5,134.5C 213.316,128.111 198.65,120.778 184.5,112.5C 185.458,111.038 186.624,109.705 188,108.5C 188.658,110.108 188.158,111.275 186.5,112C 188.679,115.039 191.012,115.206 193.5,112.5C 192.975,111.808 192.308,111.308 191.5,111C 195.27,111.062 197.27,109.229 197.5,105.5 Z"/></g>
<g><path style="opacity:1" fill="#926137" d="M 177.5,118.5 C 184.768,128.44 192.435,138.107 200.5,147.5C 199.761,147.369 199.094,147.536 198.5,148C 199.451,148.718 199.617,149.551 199,150.5C 198.085,149.672 197.419,148.672 197,147.5C 196.833,148 196.667,148.5 196.5,149C 197.756,150.845 198.756,152.845 199.5,155C 199.07,156.598 198.736,158.098 198.5,159.5C 193.312,151.111 187.646,143.111 181.5,135.5C 180.118,132.474 178.785,129.474 177.5,126.5C 177.461,123.465 176.461,120.798 174.5,118.5C 175.652,117.375 176.652,117.375 177.5,118.5 Z"/></g>
<g><path style="opacity:1" fill="#9c4c30" d="M 175.5,110.5 C 175.833,110.5 176.167,110.5 176.5,110.5C 176.281,111.675 176.614,112.675 177.5,113.5C 179.444,114.189 181.444,114.689 183.5,115C 199.749,123.259 215.749,131.926 231.5,141C 232.793,141.49 234.127,141.657 235.5,141.5C 235.037,144.221 234.371,146.888 233.5,149.5C 232.733,148.828 232.066,147.995 231.5,147C 217.954,140.063 204.62,132.896 191.5,125.5C 187.297,122.311 182.63,119.978 177.5,118.5C 176.652,117.375 175.652,117.375 174.5,118.5C 173.833,116.833 173.167,115.167 172.5,113.5C 173.9,112.9 174.9,111.9 175.5,110.5 Z"/></g>
<g><path style="opacity:1" fill="#95592a" d="M 110.5,110.5 C 111.167,110.5 111.833,110.5 112.5,110.5C 112.552,112.903 112.219,115.236 111.5,117.5C 107.952,118.759 104.285,119.593 100.5,120C 97.9067,122.556 94.9067,124.389 91.5,125.5C 91.5,122.833 91.5,120.167 91.5,117.5C 94.6676,116.136 98.0009,115.303 101.5,115C 104.4,113.199 107.4,111.699 110.5,110.5 Z"/></g>
<g><path style="opacity:1" fill="#1d2416" d="M 114.5,115.5 C 114.762,116.978 114.429,118.311 113.5,119.5C 112.702,119.043 112.369,118.376 112.5,117.5C 113.167,116.833 113.833,116.167 114.5,115.5 Z"/></g>
<g><path style="opacity:1" fill="#2e261d" d="M 91.5,116.5 C 91.5,116.833 91.5,117.167 91.5,117.5C 91.5,120.167 91.5,122.833 91.5,125.5C 91.5,126.5 91.5,127.5 91.5,128.5C 90.791,129.404 89.791,129.737 88.5,129.5C 88.6495,128.448 88.4828,127.448 88,126.5C 87.3292,127.252 86.4959,127.586 85.5,127.5C 86.2071,124.214 86.5405,120.881 86.5,117.5C 88.2161,117.371 89.8828,117.038 91.5,116.5 Z"/></g>
<g><path style="opacity:1" fill="#5fa117" d="M 85.5,116.5 C 85.7678,118.099 85.4345,119.432 84.5,120.5C 82.5544,119.965 81.5544,118.632 81.5,116.5C 82.7054,115.314 84.0387,115.314 85.5,116.5 Z"/></g>
<g><path style="opacity:1" fill="#3d5b13" d="M 85.5,112.5 C 85.5,113.833 85.5,115.167 85.5,116.5C 84.0387,115.314 82.7054,115.314 81.5,116.5C 80.8333,116.5 80.1667,116.5 79.5,116.5C 79.9709,115.099 80.6376,113.766 81.5,112.5C 82.865,113.807 84.1984,113.807 85.5,112.5 Z"/></g>
<g><path style="opacity:1" fill="#28381f" d="M 220.5,107.5 C 220.369,108.239 220.536,108.906 221,109.5C 221.654,108.304 222.154,108.304 222.5,109.5C 221.766,111.815 220.432,113.648 218.5,115C 220.759,116.84 220.759,118.84 218.5,121C 218.667,121.833 218.833,122.667 219,123.5C 221.663,118.676 225.163,114.676 229.5,111.5C 231.163,114.743 232.829,118.076 234.5,121.5C 233.195,124.053 232.195,126.72 231.5,129.5C 232.391,130.59 233.391,130.59 234.5,129.5C 235.776,124.318 236.443,124.318 236.5,129.5C 236.81,132.713 236.477,135.713 235.5,138.5C 232.968,137.404 230.635,136.071 228.5,134.5C 229.309,133.531 230.309,132.698 231.5,132C 229.833,131.667 228.167,131.333 226.5,131C 225.035,128.129 222.702,126.629 219.5,126.5C 221.189,125.696 222.855,124.696 224.5,123.5C 224,123.167 223.5,122.833 223,122.5C 221.667,123.167 220.333,123.833 219,124.5C 217.923,123.571 216.756,122.904 215.5,122.5C 215.833,121.167 216.167,119.833 216.5,118.5C 217.652,114.946 217.485,111.28 216,107.5C 215.798,109.256 215.298,110.922 214.5,112.5C 211.972,111.502 211.972,110.669 214.5,110C 212.673,109.101 211.34,107.767 210.5,106C 211.01,104.174 211.844,104.007 213,105.5C 214.333,104.833 215.667,104.167 217,103.5C 217.69,105.35 218.856,106.684 220.5,107.5 Z"/></g>
<g><path style="opacity:1" fill="#9d6135" d="M 115.5,111.5 C 119.165,112.293 119.165,113.626 115.5,115.5C 115.5,114.167 115.5,112.833 115.5,111.5 Z"/></g>
<g><path style="opacity:1" fill="#2e4491" d="M 146.5,109.5 C 147.5,110.167 148.5,110.833 149.5,111.5C 150.167,111.5 150.833,111.5 151.5,111.5C 152.833,111.5 154.167,111.5 155.5,111.5C 158.167,111.5 160.833,111.5 163.5,111.5C 164.5,111.5 165.5,111.5 166.5,111.5C 167.167,111.5 167.833,111.5 168.5,111.5C 169.496,111.586 170.329,111.252 171,110.5C 171.232,111.737 171.732,112.737 172.5,113.5C 173.167,115.167 173.833,116.833 174.5,118.5C 176.461,120.798 177.461,123.465 177.5,126.5C 176.833,126.5 176.167,126.5 175.5,126.5C 175.167,126.5 174.833,126.5 174.5,126.5C 174.5,124.5 174.5,122.5 174.5,120.5C 164.494,120.334 154.494,120.5 144.5,121C 143.248,122.828 143.248,124.661 144.5,126.5C 143.833,126.5 143.167,126.5 142.5,126.5C 141.876,126.083 141.543,125.416 141.5,124.5C 143.044,121.644 144.044,118.644 144.5,115.5C 146.481,114.895 146.815,113.895 145.5,112.5C 146.404,111.791 146.737,110.791 146.5,109.5 Z"/></g>
<g><path style="opacity:1" fill="#7e7d8c" d="M 174.5,126.5 C 164.5,126.5 154.5,126.5 144.5,126.5C 143.248,124.661 143.248,122.828 144.5,121C 154.494,120.5 164.494,120.334 174.5,120.5C 174.5,122.5 174.5,124.5 174.5,126.5 Z"/></g>
<g><path style="opacity:1" fill="#151411" d="M 150.5,121.5 C 156.5,121.5 162.5,121.5 168.5,121.5C 168.5,122.833 168.5,124.167 168.5,125.5C 162.5,125.5 156.5,125.5 150.5,125.5C 150.5,124.167 150.5,122.833 150.5,121.5 Z"/></g>
<g><path style="opacity:1" fill="#19140b" d="M 138.5,108.5 C 137.508,108.328 136.842,108.662 136.5,109.5C 135.448,109.351 134.448,109.517 133.5,110C 137.787,110.81 141.454,112.643 144.5,115.5C 144.044,118.644 143.044,121.644 141.5,124.5C 141.543,125.416 141.876,126.083 142.5,126.5C 142.5,127.167 142.167,127.5 141.5,127.5C 124.961,149.592 104.628,167.259 80.5,180.5C 71.5233,170.879 66.0233,159.546 64,146.5C 77.1976,141.487 90.3643,136.321 103.5,131C 112.409,127.3 120.576,122.467 128,116.5C 130.316,109.803 127.816,106.969 120.5,108C 122.553,109.08 124.72,109.914 127,110.5C 127.667,112.167 127.667,113.833 127,115.5C 119.706,120.898 111.872,125.398 103.5,129C 90.0374,134.397 76.3707,139.231 62.5,143.5C 61.5481,141.955 61.2148,140.288 61.5,138.5C 70.6118,136.241 79.6118,133.574 88.5,130.5C 89.5676,131.434 90.901,131.768 92.5,131.5C 92.5,130.5 92.5,129.5 92.5,128.5C 103.382,125.814 113.715,121.648 123.5,116C 124.747,114.506 124.747,113.006 123.5,111.5C 121.459,110.764 119.459,109.931 117.5,109C 116.167,108.333 116.167,107.667 117.5,107C 124.833,106.333 132.167,106.333 139.5,107C 138.944,107.383 138.611,107.883 138.5,108.5 Z"/></g>
<g><path style="opacity:1" fill="#7f8274" d="M 136.5,109.5 C 136.842,108.662 137.508,108.328 138.5,108.5C 141.206,108.575 143.873,108.908 146.5,109.5C 146.737,110.791 146.404,111.791 145.5,112.5C 142.402,111.784 139.402,110.784 136.5,109.5 Z"/></g>
<g><path style="opacity:1" fill="#787611" d="M 136.5,109.5 C 139.402,110.784 142.402,111.784 145.5,112.5C 146.815,113.895 146.481,114.895 144.5,115.5C 141.454,112.643 137.787,110.81 133.5,110C 134.448,109.517 135.448,109.351 136.5,109.5 Z"/></g>
<g><path style="opacity:1" fill="#c4360a" d="M 90.5,105.5 C 90.7819,108.91 91.4486,112.243 92.5,115.5C 92.3764,116.107 92.0431,116.44 91.5,116.5C 89.8828,117.038 88.2161,117.371 86.5,117.5C 86.5405,120.881 86.2071,124.214 85.5,127.5C 85.1667,127.5 84.8333,127.5 84.5,127.5C 83.4537,125.118 83.4537,122.785 84.5,120.5C 85.4345,119.432 85.7678,118.099 85.5,116.5C 85.5,115.167 85.5,113.833 85.5,112.5C 85.6399,110.876 84.9733,109.71 83.5,109C 84.7119,107.893 84.3786,107.393 82.5,107.5C 84.2785,106.33 85.2785,104.664 85.5,102.5C 84.5,102.5 83.5,102.5 82.5,102.5C 82.5,102.167 82.5,101.833 82.5,101.5C 87.0574,99.2348 89.7241,100.568 90.5,105.5 Z"/></g>
<g><path style="opacity:1" fill="#68ab1f" d="M 61.5,107.5 C 67.646,108.094 73.646,108.094 79.5,107.5C 80.5,107.5 81.5,107.5 82.5,107.5C 84.3786,107.393 84.7119,107.893 83.5,109C 84.9733,109.71 85.6399,110.876 85.5,112.5C 84.1984,113.807 82.865,113.807 81.5,112.5C 80.6376,113.766 79.9709,115.099 79.5,116.5C 79.7031,118.044 80.3698,119.378 81.5,120.5C 80.1804,122.27 78.6804,122.603 77,121.5C 75.0859,124.074 72.5859,125.907 69.5,127C 66.2777,127.199 63.2777,128.032 60.5,129.5C 60.2363,122.11 60.5696,114.777 61.5,107.5 Z"/></g>
<g><path style="opacity:1" fill="#37472b" d="M 236.5,115.5 C 236.719,116.675 236.386,117.675 235.5,118.5C 234.394,116.716 234.394,114.882 235.5,113C 234.167,111.667 232.833,110.333 231.5,109C 231.743,108.098 232.077,107.265 232.5,106.5C 233.496,106.586 234.329,106.252 235,105.5C 236.316,108.688 236.816,112.022 236.5,115.5 Z"/></g>
<g><path style="opacity:1" fill="#425835" d="M 216.5,94.5 C 217.693,96.3004 218.86,97.9671 220,99.5C 220.333,99.1667 220.667,98.8333 221,98.5C 221.234,102.425 222.068,105.425 223.5,107.5C 222.5,107.5 221.5,107.5 220.5,107.5C 218.856,106.684 217.69,105.35 217,103.5C 215.667,104.167 214.333,104.833 213,105.5C 211.844,104.007 211.01,104.174 210.5,106C 211.34,107.767 212.673,109.101 214.5,110C 211.972,110.669 211.972,111.502 214.5,112.5C 215.298,110.922 215.798,109.256 216,107.5C 217.485,111.28 217.652,114.946 216.5,118.5C 216.617,116.516 215.95,114.85 214.5,113.5C 214.642,115.89 214.142,118.223 213,120.5C 212.667,120.833 212.333,121.167 212,121.5C 211.692,120.692 211.192,120.025 210.5,119.5C 208.145,122.092 206.145,121.925 204.5,119C 205.449,118.383 206.282,118.549 207,119.5C 207.483,118.552 207.649,117.552 207.5,116.5C 206.448,116.649 205.448,116.483 204.5,116C 206.167,115 207.5,113.667 208.5,112C 204.949,109.443 202.616,110.276 201.5,114.5C 200.636,112.803 199.303,111.637 197.5,111C 200.269,110.165 200.935,108.665 199.5,106.5C 199.951,102.878 201.951,101.378 205.5,102C 204.542,103.147 204.875,104.147 206.5,105C 205.289,105.893 205.289,106.726 206.5,107.5C 207.354,106.478 208.354,105.645 209.5,105C 206.029,103.897 205.696,102.064 208.5,99.5C 209.478,99.9767 210.311,100.643 211,101.5C 211.974,99.1224 212.641,99.4557 213,102.5C 213.483,101.552 213.649,100.552 213.5,99.5C 214.5,99.5 215.5,99.5 216.5,99.5C 216.5,97.8333 216.5,96.1667 216.5,94.5 Z"/></g>
<g><path style="opacity:1" fill="#608252" d="M 218.5,91.5 C 218.833,91.5 219.167,91.5 219.5,91.5C 221.549,91.7058 221.883,92.5391 220.5,94C 221.701,94.9025 222.535,96.0692 223,97.5C 224.119,96.4479 224.619,95.2812 224.5,94C 228.125,93.9412 229.125,95.6079 227.5,99C 227.785,102.301 229.452,103.635 232.5,103C 229.742,100.903 230.075,99.4032 233.5,98.5C 233.833,100.5 234.167,102.5 234.5,104.5C 232.799,104.966 231.299,104.966 230,104.5C 229.812,106.061 230.645,106.728 232.5,106.5C 232.077,107.265 231.743,108.098 231.5,109C 232.833,110.333 234.167,111.667 235.5,113C 234.394,114.882 234.394,116.716 235.5,118.5C 236.386,117.675 236.719,116.675 236.5,115.5C 237.833,120.167 237.833,124.833 236.5,129.5C 236.443,124.318 235.776,124.318 234.5,129.5C 233.391,130.59 232.391,130.59 231.5,129.5C 232.195,126.72 233.195,124.053 234.5,121.5C 232.829,118.076 231.163,114.743 229.5,111.5C 225.163,114.676 221.663,118.676 219,123.5C 218.833,122.667 218.667,121.833 218.5,121C 220.759,118.84 220.759,116.84 218.5,115C 220.432,113.648 221.766,111.815 222.5,109.5C 222.154,108.304 221.654,108.304 221,109.5C 220.536,108.906 220.369,108.239 220.5,107.5C 221.5,107.5 222.5,107.5 223.5,107.5C 222.068,105.425 221.234,102.425 221,98.5C 220.667,98.8333 220.333,99.1667 220,99.5C 218.86,97.9671 217.693,96.3004 216.5,94.5C 217.167,93.5 217.833,92.5 218.5,91.5 Z"/></g>
<g><path style="opacity:1" fill="#60a716" d="M 98.5,104.5 C 102.498,105.842 106.498,106.509 110.5,106.5C 110.5,107.833 110.5,109.167 110.5,110.5C 107.4,111.699 104.4,113.199 101.5,115C 98.0009,115.303 94.6676,116.136 91.5,117.5C 91.5,117.167 91.5,116.833 91.5,116.5C 92.0431,116.44 92.3764,116.107 92.5,115.5C 91.4486,112.243 90.7819,108.91 90.5,105.5C 93.0961,104.735 95.7628,104.401 98.5,104.5 Z"/></g>
<g><path style="opacity:1" fill="#898f92" d="M 170.5,103.5 C 171.309,105.292 171.809,107.292 172,109.5C 173.011,110.337 174.178,110.67 175.5,110.5C 174.9,111.9 173.9,112.9 172.5,113.5C 171.732,112.737 171.232,111.737 171,110.5C 170.329,111.252 169.496,111.586 168.5,111.5C 168.5,109.167 168.5,106.833 168.5,104.5C 162.173,105.724 155.84,105.724 149.5,104.5C 149.5,106.833 149.5,109.167 149.5,111.5C 148.5,110.833 147.5,110.167 146.5,109.5C 146.5,108.833 146.5,108.167 146.5,107.5C 148.176,106.817 148.843,105.483 148.5,103.5C 155.833,103.5 163.167,103.5 170.5,103.5 Z"/></g>
<g><path style="opacity:1" fill="#efefef" d="M 168.5,111.5 C 167.833,111.5 167.167,111.5 166.5,111.5C 166.5,110.167 166.5,108.833 166.5,107.5C 165.5,107.5 164.5,107.5 163.5,107.5C 163.5,108.833 163.5,110.167 163.5,111.5C 160.833,111.5 158.167,111.5 155.5,111.5C 155.5,110.167 155.5,108.833 155.5,107.5C 154.167,107.5 152.833,107.5 151.5,107.5C 151.5,108.833 151.5,110.167 151.5,111.5C 150.833,111.5 150.167,111.5 149.5,111.5C 149.5,109.167 149.5,106.833 149.5,104.5C 155.84,105.724 162.173,105.724 168.5,104.5C 168.5,106.833 168.5,109.167 168.5,111.5 Z"/></g>
<g><path style="opacity:1" fill="#161615" d="M 166.5,111.5 C 165.5,111.5 164.5,111.5 163.5,111.5C 163.5,110.167 163.5,108.833 163.5,107.5C 164.5,107.5 165.5,107.5 166.5,107.5C 166.5,108.833 166.5,110.167 166.5,111.5 Z"/></g>
<g><path style="opacity:1" fill="#1f1d1e" d="M 155.5,111.5 C 154.167,111.5 152.833,111.5 151.5,111.5C 151.5,110.167 151.5,108.833 151.5,107.5C 152.833,107.5 154.167,107.5 155.5,107.5C 155.5,108.833 155.5,110.167 155.5,111.5 Z"/></g>
<g><path style="opacity:1" fill="#d6d6b0" d="M 116.5,99.5 C 115.728,103.452 115.395,107.452 115.5,111.5C 115.5,112.833 115.5,114.167 115.5,115.5C 115.167,115.5 114.833,115.5 114.5,115.5C 113.833,116.167 113.167,116.833 112.5,117.5C 112.167,117.5 111.833,117.5 111.5,117.5C 112.219,115.236 112.552,112.903 112.5,110.5C 113.159,107.545 113.492,104.545 113.5,101.5C 114.5,100.833 115.5,100.167 116.5,99.5 Z"/></g>
<g><path style="opacity:1" fill="#496539" d="M 171.5,92.5 C 170.884,93.7978 170.884,94.7978 171.5,95.5C 171.5,96.1667 171.833,96.5 172.5,96.5C 173.402,98.3407 174.736,99.674 176.5,100.5C 173.963,102.573 172.796,105.24 173,108.5C 174.388,109.554 175.888,109.72 177.5,109C 178.304,107.229 179.471,105.729 181,104.5C 182.678,105.682 182.512,106.848 180.5,108C 181.515,109.373 181.515,110.54 180.5,111.5C 179.167,111.167 177.833,110.833 176.5,110.5C 176.167,110.5 175.833,110.5 175.5,110.5C 174.178,110.67 173.011,110.337 172,109.5C 171.809,107.292 171.309,105.292 170.5,103.5C 170.5,103.167 170.5,102.833 170.5,102.5C 171.376,102.631 172.043,102.298 172.5,101.5C 171.352,99.8513 170.019,98.3513 168.5,97C 169.774,96.0228 169.774,95.1894 168.5,94.5C 169.29,93.5987 170.29,92.9321 171.5,92.5 Z"/></g>
<g><path style="opacity:1" fill="#223886" d="M 170.5,102.5 C 170.5,102.833 170.5,103.167 170.5,103.5C 163.167,103.5 155.833,103.5 148.5,103.5C 148.843,105.483 148.176,106.817 146.5,107.5C 146.5,107.167 146.5,106.833 146.5,106.5C 147.434,105.432 147.768,104.099 147.5,102.5C 155.167,102.5 162.833,102.5 170.5,102.5 Z"/></g>
<g><path style="opacity:1" fill="#1c4a21" d="M 82.5,102.5 C 83.5,102.5 84.5,102.5 85.5,102.5C 85.2785,104.664 84.2785,106.33 82.5,107.5C 81.5,107.5 80.5,107.5 79.5,107.5C 77.636,107.679 75.636,107.179 73.5,106C 75.8377,103.169 78.8377,102.003 82.5,102.5 Z"/></g>
<g><path style="opacity:1" fill="#181911" d="M 113.5,101.5 C 113.492,104.545 113.159,107.545 112.5,110.5C 111.833,110.5 111.167,110.5 110.5,110.5C 110.5,109.167 110.5,107.833 110.5,106.5C 110.298,104.011 110.798,101.677 112,99.5C 112.717,100.044 113.217,100.711 113.5,101.5 Z"/></g>
<g><path style="opacity:1" fill="#d6913f" d="M 73.5,96.5 C 73.8333,96.5 74.1667,96.5 74.5,96.5C 73.8592,97.4822 73.1925,98.4822 72.5,99.5C 75.4281,100.484 78.4281,100.817 81.5,100.5C 82.1667,100.5 82.5,100.833 82.5,101.5C 82.5,101.833 82.5,102.167 82.5,102.5C 78.8377,102.003 75.8377,103.169 73.5,106C 75.636,107.179 77.636,107.679 79.5,107.5C 73.646,108.094 67.646,108.094 61.5,107.5C 61.3505,106.448 61.5172,105.448 62,104.5C 63.3509,104.554 64.5176,104.054 65.5,103C 65.0946,102.055 64.428,101.388 63.5,101C 65.9005,100.814 68.2338,100.314 70.5,99.5C 70.8793,97.7869 71.8793,96.7869 73.5,96.5 Z"/></g>
<g><path style="opacity:1" fill="#4c7e3d" d="M 191.5,101.5 C 186.984,100.99 182.65,101.99 178.5,104.5C 177.152,102.389 177.485,100.555 179.5,99C 178.906,98.5357 178.239,98.369 177.5,98.5C 176.07,97.4625 174.403,96.7959 172.5,96.5C 171.833,96.5 171.5,96.1667 171.5,95.5C 172.688,94.3157 173.855,94.3157 175,95.5C 175.29,93.9559 175.956,92.6226 177,91.5C 178.31,93.1322 178.81,94.7988 178.5,96.5C 179.689,97.4287 181.022,97.762 182.5,97.5C 182.678,101.102 183.678,101.102 185.5,97.5C 183.851,96.8524 182.518,95.8524 181.5,94.5C 181.833,93.5 182.5,92.8333 183.5,92.5C 186.547,93.8751 187.88,96.2084 187.5,99.5C 189.483,99.1568 190.817,99.8235 191.5,101.5 Z"/></g>
<g><path style="opacity:1" fill="#6bb12d" d="M 149.5,93.5 C 148.115,94.6138 146.615,95.6138 145,96.5C 144.508,97.549 144.674,98.549 145.5,99.5C 144.397,99.9976 143.397,100.331 142.5,100.5C 144.278,102.264 145.611,104.264 146.5,106.5C 146.5,106.833 146.5,107.167 146.5,107.5C 146.5,108.167 146.5,108.833 146.5,109.5C 143.873,108.908 141.206,108.575 138.5,108.5C 138.611,107.883 138.944,107.383 139.5,107C 132.167,106.333 124.833,106.333 117.5,107C 116.167,107.667 116.167,108.333 117.5,109C 119.459,109.931 121.459,110.764 123.5,111.5C 124.747,113.006 124.747,114.506 123.5,116C 113.715,121.648 103.382,125.814 92.5,128.5C 92.1667,128.5 91.8333,128.5 91.5,128.5C 91.5,127.5 91.5,126.5 91.5,125.5C 94.9067,124.389 97.9067,122.556 100.5,120C 104.285,119.593 107.952,118.759 111.5,117.5C 111.833,117.5 112.167,117.5 112.5,117.5C 112.369,118.376 112.702,119.043 113.5,119.5C 114.429,118.311 114.762,116.978 114.5,115.5C 114.833,115.5 115.167,115.5 115.5,115.5C 119.165,113.626 119.165,112.293 115.5,111.5C 115.395,107.452 115.728,103.452 116.5,99.5C 116.5,99.1667 116.5,98.8333 116.5,98.5C 116.5,97.8333 116.833,97.5 117.5,97.5C 119.62,97.0702 121.62,97.0702 123.5,97.5C 125.258,98.1279 126.758,99.1279 128,100.5C 130.597,99.5856 130.93,97.919 129,95.5C 127.167,98.3333 125.667,98.1667 124.5,95C 125.167,94.6667 125.833,94.3333 126.5,94C 125.263,93.7679 124.263,93.2679 123.5,92.5C 125.167,92.5 126.833,92.5 128.5,92.5C 130.701,95.3449 133.201,95.6782 136,93.5C 137.049,95.1066 138.549,95.7733 140.5,95.5C 140.5,94.5 140.5,93.5 140.5,92.5C 142.92,92.7076 145.253,92.3742 147.5,91.5C 148.522,91.8555 149.189,92.5222 149.5,93.5 Z"/></g>
<g><path style="opacity:1" fill="#e3ece1" d="M 172.5,96.5 C 174.403,96.7959 176.07,97.4625 177.5,98.5C 177.167,99.1667 176.833,99.8333 176.5,100.5C 174.736,99.674 173.402,98.3407 172.5,96.5 Z"/></g>
<g><path style="opacity:1" fill="#1e4d23" d="M 90.5,94.5 C 91.1667,94.8333 91.8333,95.1667 92.5,95.5C 93.9002,96.1001 94.9002,97.1001 95.5,98.5C 98.6922,99.5492 99.6922,101.549 98.5,104.5C 95.7628,104.401 93.0961,104.735 90.5,105.5C 89.7241,100.568 87.0574,99.2348 82.5,101.5C 82.5,100.833 82.1667,100.5 81.5,100.5C 82.8333,98.8333 84.1667,97.1667 85.5,95.5C 87.2161,95.3713 88.8828,95.038 90.5,94.5 Z"/></g>
<g><path style="opacity:1" fill="#314a2a" d="M 197.5,105.5 C 197.27,109.229 195.27,111.062 191.5,111C 192.308,111.308 192.975,111.808 193.5,112.5C 191.012,115.206 188.679,115.039 186.5,112C 188.158,111.275 188.658,110.108 188,108.5C 186.624,109.705 185.458,111.038 184.5,112.5C 182.901,112.768 181.568,112.434 180.5,111.5C 181.515,110.54 181.515,109.373 180.5,108C 182.512,106.848 182.678,105.682 181,104.5C 179.471,105.729 178.304,107.229 177.5,109C 175.888,109.72 174.388,109.554 173,108.5C 172.796,105.24 173.963,102.573 176.5,100.5C 176.833,99.8333 177.167,99.1667 177.5,98.5C 178.239,98.369 178.906,98.5357 179.5,99C 177.485,100.555 177.152,102.389 178.5,104.5C 182.65,101.99 186.984,100.99 191.5,101.5C 192.496,101.414 193.329,101.748 194,102.5C 194.464,101.906 194.631,101.239 194.5,100.5C 195.441,97.8749 196.607,97.8749 198,100.5C 198.923,99.2412 199.757,97.9079 200.5,96.5C 201.833,97.5 203.167,98.5 204.5,99.5C 201.152,99.8127 198.819,101.813 197.5,105.5 Z"/></g>
<g><path style="opacity:1" fill="#93bed6" d="M 85.5,95.5 C 84.1667,97.1667 82.8333,98.8333 81.5,100.5C 78.4281,100.817 75.4281,100.484 72.5,99.5C 73.1925,98.4822 73.8592,97.4822 74.5,96.5C 77.8735,95.9365 81.5402,95.6031 85.5,95.5 Z"/></g>
<g><path style="opacity:1" fill="#689450" d="M 218.5,91.5 C 217.833,92.5 217.167,93.5 216.5,94.5C 216.5,96.1667 216.5,97.8333 216.5,99.5C 215.5,99.5 214.5,99.5 213.5,99.5C 213.649,100.552 213.483,101.552 213,102.5C 212.641,99.4557 211.974,99.1224 211,101.5C 210.311,100.643 209.478,99.9767 208.5,99.5C 205.696,102.064 206.029,103.897 209.5,105C 208.354,105.645 207.354,106.478 206.5,107.5C 205.289,106.726 205.289,105.893 206.5,105C 204.875,104.147 204.542,103.147 205.5,102C 201.951,101.378 199.951,102.878 199.5,106.5C 198.833,106.167 198.167,105.833 197.5,105.5C 198.819,101.813 201.152,99.8127 204.5,99.5C 203.167,98.5 201.833,97.5 200.5,96.5C 199.757,97.9079 198.923,99.2412 198,100.5C 196.607,97.8749 195.441,97.8749 194.5,100.5C 194.5,99.5 194.5,98.5 194.5,97.5C 190.566,97.7358 189.399,96.4025 191,93.5C 192.049,95.1066 193.549,95.7733 195.5,95.5C 195.5,94.1667 195.5,92.8333 195.5,91.5C 198.388,91.2196 199.888,92.5529 200,95.5C 200.2,93.6803 201.034,92.347 202.5,91.5C 206.613,91.2431 210.947,90.5764 215.5,89.5C 215.833,90.1667 216.167,90.8333 216.5,91.5C 217.649,89.0752 218.316,89.0752 218.5,91.5 Z"/></g>
<g><path style="opacity:1" fill="#9ebd76" d="M 202.5,91.5 C 201.034,92.347 200.2,93.6803 200,95.5C 199.888,92.5529 198.388,91.2196 195.5,91.5C 195.5,92.8333 195.5,94.1667 195.5,95.5C 193.549,95.7733 192.049,95.1066 191,93.5C 189.399,96.4025 190.566,97.7358 194.5,97.5C 194.5,98.5 194.5,99.5 194.5,100.5C 194.631,101.239 194.464,101.906 194,102.5C 193.329,101.748 192.496,101.414 191.5,101.5C 190.817,99.8235 189.483,99.1568 187.5,99.5C 187.88,96.2084 186.547,93.8751 183.5,92.5C 182.5,92.8333 181.833,93.5 181.5,94.5C 182.518,95.8524 183.851,96.8524 185.5,97.5C 183.678,101.102 182.678,101.102 182.5,97.5C 181.022,97.762 179.689,97.4287 178.5,96.5C 178.81,94.7988 178.31,93.1322 177,91.5C 175.956,92.6226 175.29,93.9559 175,95.5C 173.855,94.3157 172.688,94.3157 171.5,95.5C 170.884,94.7978 170.884,93.7978 171.5,92.5C 171.328,91.5084 171.662,90.8417 172.5,90.5C 175.049,90.6126 177.382,89.9459 179.5,88.5C 179.402,89.6161 179.902,90.6161 181,91.5C 182.792,90.9633 184.625,90.6299 186.5,90.5C 189.44,90.8442 191.94,91.5109 194,92.5C 194.875,88.3932 196.709,87.7265 199.5,90.5C 200.922,89.2232 201.922,89.5565 202.5,91.5 Z"/></g>
<g><path style="opacity:1" fill="#ce7f34" d="M 99.5,94.5 C 100.5,95.8333 101.5,95.8333 102.5,94.5C 102.5,95.5 102.5,96.5 102.5,97.5C 100.533,97.7394 98.6995,97.4061 97,96.5C 96.7216,97.4158 96.2216,98.0825 95.5,98.5C 94.9002,97.1001 93.9002,96.1001 92.5,95.5C 95.0593,95.8016 97.3926,95.4682 99.5,94.5 Z"/></g>
<g><path style="opacity:1" fill="#4e5d27" d="M 92.5,92.5 C 91.5,92.8333 90.8333,93.5 90.5,94.5C 88.8828,95.038 87.2161,95.3713 85.5,95.5C 81.5402,95.6031 77.8735,95.9365 74.5,96.5C 74.1667,96.5 73.8333,96.5 73.5,96.5C 70.7699,95.1834 67.9365,95.1834 65,96.5C 64.9938,93.9094 65.8271,91.576 67.5,89.5C 70.4629,89.1507 72.7962,90.1507 74.5,92.5C 78.392,91.1448 78.0587,90.3114 73.5,90C 74.1258,89.2496 74.6258,88.4162 75,87.5C 77.8682,88.3608 80.2015,90.0275 82,92.5C 83.0521,90.189 84.8854,88.8557 87.5,88.5C 89.054,90.0931 90.7207,91.4265 92.5,92.5 Z"/></g>
<g><path style="opacity:1" fill="#ccc743" d="M 155.5,89.5 C 160.252,90.1932 164.586,91.8599 168.5,94.5C 169.774,95.1894 169.774,96.0228 168.5,97C 170.019,98.3513 171.352,99.8513 172.5,101.5C 172.043,102.298 171.376,102.631 170.5,102.5C 162.833,102.5 155.167,102.5 147.5,102.5C 147.768,104.099 147.434,105.432 146.5,106.5C 145.611,104.264 144.278,102.264 142.5,100.5C 143.397,100.331 144.397,99.9976 145.5,99.5C 144.674,98.549 144.508,97.549 145,96.5C 146.615,95.6138 148.115,94.6138 149.5,93.5C 152.265,93.2905 154.265,91.9571 155.5,89.5 Z"/></g>
<g><path style="opacity:1" fill="#8db8ce" d="M 99.5,94.5 C 97.3926,95.4682 95.0593,95.8016 92.5,95.5C 91.8333,95.1667 91.1667,94.8333 90.5,94.5C 90.8333,93.5 91.5,92.8333 92.5,92.5C 92.8333,92.5 93.1667,92.5 93.5,92.5C 95.8555,91.4249 98.1889,91.4249 100.5,92.5C 100.137,93.1835 99.8039,93.8501 99.5,94.5 Z"/></g>
<g><path style="opacity:1" fill="#817f5c" d="M 101.5,90.5 C 103.745,91.2919 104.078,92.6253 102.5,94.5C 101.5,95.8333 100.5,95.8333 99.5,94.5C 99.8039,93.8501 100.137,93.1835 100.5,92.5C 98.1889,91.4249 95.8555,91.4249 93.5,92.5C 93.0629,90.9256 92.0629,89.7589 90.5,89C 91.4162,88.6258 92.2496,88.1258 93,87.5C 95.6383,89.0351 98.4717,90.0351 101.5,90.5 Z"/></g>
<g><path style="opacity:1" fill="#93b968" d="M 231.5,91.5 C 231.767,93.9653 232.434,96.2986 233.5,98.5C 230.075,99.4032 229.742,100.903 232.5,103C 229.452,103.635 227.785,102.301 227.5,99C 229.125,95.6079 228.125,93.9412 224.5,94C 224.619,95.2812 224.119,96.4479 223,97.5C 222.535,96.0692 221.701,94.9025 220.5,94C 221.883,92.5391 221.549,91.7058 219.5,91.5C 222.091,89.5426 224.591,89.5426 227,91.5C 228.414,90.5868 229.914,90.5868 231.5,91.5 Z"/></g>
<g><path style="opacity:1" fill="#4c671f" d="M 123.5,92.5 C 124.263,93.2679 125.263,93.7679 126.5,94C 125.833,94.3333 125.167,94.6667 124.5,95C 125.667,98.1667 127.167,98.3333 129,95.5C 130.93,97.919 130.597,99.5856 128,100.5C 126.758,99.1279 125.258,98.1279 123.5,97.5C 121.62,97.0702 119.62,97.0702 117.5,97.5C 116.375,94.872 114.375,94.0387 111.5,95C 111.043,95.414 110.709,95.914 110.5,96.5C 112.411,97.4767 114.411,98.1433 116.5,98.5C 116.5,98.8333 116.5,99.1667 116.5,99.5C 115.5,100.167 114.5,100.833 113.5,101.5C 113.217,100.711 112.717,100.044 112,99.5C 110.798,101.677 110.298,104.011 110.5,106.5C 106.498,106.509 102.498,105.842 98.5,104.5C 99.6922,101.549 98.6922,99.5492 95.5,98.5C 96.2216,98.0825 96.7216,97.4158 97,96.5C 98.6995,97.4061 100.533,97.7394 102.5,97.5C 102.5,96.5 102.5,95.5 102.5,94.5C 104.078,92.6253 103.745,91.2919 101.5,90.5C 102.172,89.7326 103.005,89.0659 104,88.5C 105.427,90.7871 107.261,91.1205 109.5,89.5C 111.332,90.2485 112.999,91.2485 114.5,92.5C 117.319,92.2577 120.319,92.2577 123.5,92.5 Z"/></g>
<g><path style="opacity:1" fill="#17130c" d="M 117.5,97.5 C 116.833,97.5 116.5,97.8333 116.5,98.5C 114.411,98.1433 112.411,97.4767 110.5,96.5C 110.709,95.914 111.043,95.414 111.5,95C 114.375,94.0387 116.375,94.872 117.5,97.5 Z"/></g>
<g><path style="opacity:1" fill="#46961e" d="M 172.5,90.5 C 171.662,90.8417 171.328,91.5084 171.5,92.5C 170.29,92.9321 169.29,93.5987 168.5,94.5C 164.586,91.8599 160.252,90.1932 155.5,89.5C 155.389,88.8826 155.056,88.3826 154.5,88C 156.342,88.068 158.009,87.9014 159.5,87.5C 161.921,85.034 164.421,85.034 167,87.5C 167.333,87.1667 167.667,86.8333 168,86.5C 169.492,87.9203 170.992,89.2536 172.5,90.5 Z"/></g>
<g><path style="opacity:1" fill="#35491d" d="M 159.5,87.5 C 158.009,87.9014 156.342,88.068 154.5,88C 155.056,88.3826 155.389,88.8826 155.5,89.5C 154.265,91.9571 152.265,93.2905 149.5,93.5C 149.189,92.5222 148.522,91.8555 147.5,91.5C 145.253,92.3742 142.92,92.7076 140.5,92.5C 140.5,93.5 140.5,94.5 140.5,95.5C 138.549,95.7733 137.049,95.1066 136,93.5C 133.201,95.6782 130.701,95.3449 128.5,92.5C 130.5,92.5 132.5,92.5 134.5,92.5C 134.579,91.0695 134.246,89.7362 133.5,88.5C 136.947,86.3958 140.28,86.3958 143.5,88.5C 144.797,86.6332 146.297,86.2998 148,87.5C 150.854,86.886 153.687,86.2193 156.5,85.5C 157.739,85.9424 158.739,86.6091 159.5,87.5 Z"/></g>
<g><path style="opacity:1" fill="#e8eeca" d="M 72.5,79.5 C 123.615,79.7545 174.282,79.7545 224.5,79.5C 227.323,83.1362 229.656,87.1362 231.5,91.5C 229.914,90.5868 228.414,90.5868 227,91.5C 224.591,89.5426 222.091,89.5426 219.5,91.5C 219.167,91.5 218.833,91.5 218.5,91.5C 218.316,89.0752 217.649,89.0752 216.5,91.5C 216.167,90.8333 215.833,90.1667 215.5,89.5C 210.947,90.5764 206.613,91.2431 202.5,91.5C 201.922,89.5565 200.922,89.2232 199.5,90.5C 196.709,87.7265 194.875,88.3932 194,92.5C 191.94,91.5109 189.44,90.8442 186.5,90.5C 184.625,90.6299 182.792,90.9633 181,91.5C 179.902,90.6161 179.402,89.6161 179.5,88.5C 177.382,89.9459 175.049,90.6126 172.5,90.5C 170.992,89.2536 169.492,87.9203 168,86.5C 167.667,86.8333 167.333,87.1667 167,87.5C 164.421,85.034 161.921,85.034 159.5,87.5C 158.739,86.6091 157.739,85.9424 156.5,85.5C 153.687,86.2193 150.854,86.886 148,87.5C 146.297,86.2998 144.797,86.6332 143.5,88.5C 140.28,86.3958 136.947,86.3958 133.5,88.5C 134.246,89.7362 134.579,91.0695 134.5,92.5C 132.5,92.5 130.5,92.5 128.5,92.5C 126.833,92.5 125.167,92.5 123.5,92.5C 120.319,92.2577 117.319,92.2577 114.5,92.5C 112.999,91.2485 111.332,90.2485 109.5,89.5C 107.261,91.1205 105.427,90.7871 104,88.5C 103.005,89.0659 102.172,89.7326 101.5,90.5C 98.4717,90.0351 95.6383,89.0351 93,87.5C 92.2496,88.1258 91.4162,88.6258 90.5,89C 92.0629,89.7589 93.0629,90.9256 93.5,92.5C 93.1667,92.5 92.8333,92.5 92.5,92.5C 90.7207,91.4265 89.054,90.0931 87.5,88.5C 84.8854,88.8557 83.0521,90.189 82,92.5C 80.2015,90.0275 77.8682,88.3608 75,87.5C 74.6258,88.4162 74.1258,89.2496 73.5,90C 78.0587,90.3114 78.392,91.1448 74.5,92.5C 72.7962,90.1507 70.4629,89.1507 67.5,89.5C 68.332,85.6907 69.9986,82.3573 72.5,79.5 Z"/></g>
<g><path style="opacity:1" fill="#d2e5ce" d="M 222.5,75.5 C 223.674,76.5137 224.34,77.847 224.5,79.5C 174.282,79.7545 123.615,79.7545 72.5,79.5C 72.427,77.9731 73.0937,76.9731 74.5,76.5C 92.9659,76.7066 111.799,76.04 131,74.5C 131.333,74.8333 131.667,75.1667 132,75.5C 132.725,73.842 133.892,73.342 135.5,74C 134.833,74.3333 134.167,74.6667 133.5,75C 157.739,75.1719 181.906,75.6719 206,76.5C 207.628,75.9034 209.295,76.2367 211,77.5C 214.935,76.8622 218.769,76.1955 222.5,75.5 Z"/></g>
<g><path style="opacity:1" fill="#bbd9cb" d="M 210.5,60.5 C 215.229,64.8983 219.229,69.8983 222.5,75.5C 218.769,76.1955 214.935,76.8622 211,77.5C 209.295,76.2367 207.628,75.9034 206,76.5C 181.906,75.6719 157.739,75.1719 133.5,75C 134.167,74.6667 134.833,74.3333 135.5,74C 133.892,73.342 132.725,73.842 132,75.5C 131.667,75.1667 131.333,74.8333 131,74.5C 111.799,76.04 92.9659,76.7066 74.5,76.5C 76.7217,70.736 80.3884,66.0693 85.5,62.5C 92.9866,62.382 100.653,62.382 108.5,62.5C 108.187,66.0419 108.521,69.3752 109.5,72.5C 110.833,72.5 112.167,72.5 113.5,72.5C 113.337,70.1432 113.503,67.8098 114,65.5C 114.414,65.0426 114.914,64.7093 115.5,64.5C 117.85,66.6869 119.85,69.1869 121.5,72C 123.066,72.765 124.399,72.5983 125.5,71.5C 127.203,72.6602 127.869,71.9935 127.5,69.5C 130.204,72.3033 133.537,73.1366 137.5,72C 139.872,70.5295 139.872,69.3628 137.5,68.5C 134.661,71.4324 132.327,71.099 130.5,67.5C 133.428,66.5159 136.428,66.1826 139.5,66.5C 140.1,65.0998 141.1,64.0998 142.5,63.5C 142.5,66.5 142.5,69.5 142.5,72.5C 143.833,72.5 145.167,72.5 146.5,72.5C 146.5,69.8333 146.5,67.1667 146.5,64.5C 147.552,64.3505 148.552,64.5172 149.5,65C 151.167,67.3333 152.833,69.6667 154.5,72C 156.167,72.6667 157.833,72.6667 159.5,72C 158.177,71.1841 157.511,70.0174 157.5,68.5C 158.75,68.4226 159.583,67.756 160,66.5C 160.232,67.7375 160.732,68.7375 161.5,69.5C 161.5,70.5 161.5,71.5 161.5,72.5C 162.833,72.5 164.167,72.5 165.5,72.5C 165.5,69.8333 165.5,67.1667 165.5,64.5C 166.552,64.3505 167.552,64.5172 168.5,65C 170.167,67.3333 171.833,69.6667 173.5,72C 176.554,72.8214 179.554,72.6548 182.5,71.5C 183.452,69.4884 185.119,68.4884 187.5,68.5C 190.958,67.7741 192.625,69.1075 192.5,72.5C 193.833,72.5 195.167,72.5 196.5,72.5C 195.901,69.0369 194.901,65.7036 193.5,62.5C 198.511,62.6659 203.511,62.4993 208.5,62C 209.416,61.7216 210.082,61.2216 210.5,60.5 Z"/></g>
<g><path style="opacity:1" fill="#093517" d="M 193.5,62.5 C 194.901,65.7036 195.901,69.0369 196.5,72.5C 195.167,72.5 193.833,72.5 192.5,72.5C 192.625,69.1075 190.958,67.7741 187.5,68.5C 185.119,68.4884 183.452,69.4884 182.5,71.5C 179.554,72.6548 176.554,72.8214 173.5,72C 171.833,69.6667 170.167,67.3333 168.5,65C 167.552,64.5172 166.552,64.3505 165.5,64.5C 165.5,67.1667 165.5,69.8333 165.5,72.5C 164.167,72.5 162.833,72.5 161.5,72.5C 161.5,71.5 161.5,70.5 161.5,69.5C 161.5,64.1667 161.5,58.8333 161.5,53.5C 165.182,53.3347 168.848,53.5014 172.5,54C 176.213,55.6912 177.379,58.5245 176,62.5C 174.795,63.0712 173.628,63.7379 172.5,64.5C 174.524,66.6898 176.357,69.0232 178,71.5C 180.908,66.4494 183.242,61.116 185,55.5C 186.699,54.5939 188.533,54.2606 190.5,54.5C 190.98,57.4432 191.98,60.1098 193.5,62.5 Z"/></g>
<g><path style="opacity:1" fill="#7ca59f" d="M 187.5,58.5 C 188.481,60.396 189.481,62.396 190.5,64.5C 188.955,65.4519 187.288,65.7852 185.5,65.5C 185.767,63.0347 186.434,60.7014 187.5,58.5 Z"/></g>
<g><path style="opacity:1" fill="#083214" d="M 139.5,66.5 C 136.428,66.1826 133.428,66.5159 130.5,67.5C 132.327,71.099 134.661,71.4324 137.5,68.5C 139.872,69.3628 139.872,70.5295 137.5,72C 133.537,73.1366 130.204,72.3033 127.5,69.5C 126.054,60.7707 129.387,57.6041 137.5,60C 139.229,61.7889 139.896,63.9556 139.5,66.5 Z"/></g>
<g><path style="opacity:1" fill="#0b3719" d="M 157.5,68.5 C 157.511,70.0174 158.177,71.1841 159.5,72C 157.833,72.6667 156.167,72.6667 154.5,72C 152.833,69.6667 151.167,67.3333 149.5,65C 148.552,64.5172 147.552,64.3505 146.5,64.5C 146.5,67.1667 146.5,69.8333 146.5,72.5C 145.167,72.5 143.833,72.5 142.5,72.5C 142.5,69.5 142.5,66.5 142.5,63.5C 142.5,60.1667 142.5,56.8333 142.5,53.5C 146.902,53.2281 151.235,53.5614 155.5,54.5C 158.682,58.7655 158.015,62.0988 153.5,64.5C 154.849,65.9093 156.182,67.2426 157.5,68.5 Z"/></g>
<g><path style="opacity:1" fill="#85bec9" d="M 98.5,50.5 C 99.172,51.2674 100.005,51.9341 101,52.5C 133.137,51.8227 165.303,51.156 197.5,50.5C 202.409,53.0745 206.742,56.4078 210.5,60.5C 210.082,61.2216 209.416,61.7216 208.5,62C 203.511,62.4993 198.511,62.6659 193.5,62.5C 191.98,60.1098 190.98,57.4432 190.5,54.5C 188.533,54.2606 186.699,54.5939 185,55.5C 183.242,61.116 180.908,66.4494 178,71.5C 176.357,69.0232 174.524,66.6898 172.5,64.5C 173.628,63.7379 174.795,63.0712 176,62.5C 177.379,58.5245 176.213,55.6912 172.5,54C 168.848,53.5014 165.182,53.3347 161.5,53.5C 161.5,58.8333 161.5,64.1667 161.5,69.5C 160.732,68.7375 160.232,67.7375 160,66.5C 159.583,67.756 158.75,68.4226 157.5,68.5C 156.182,67.2426 154.849,65.9093 153.5,64.5C 158.015,62.0988 158.682,58.7655 155.5,54.5C 151.235,53.5614 146.902,53.2281 142.5,53.5C 142.5,56.8333 142.5,60.1667 142.5,63.5C 141.1,64.0998 140.1,65.0998 139.5,66.5C 139.896,63.9556 139.229,61.7889 137.5,60C 129.387,57.6041 126.054,60.7707 127.5,69.5C 127.869,71.9935 127.203,72.6602 125.5,71.5C 123.092,68.4224 121.092,65.0891 119.5,61.5C 120.559,58.9318 122.226,56.7651 124.5,55C 122.833,54.3333 121.167,54.3333 119.5,55C 117.607,57.3031 115.607,59.4698 113.5,61.5C 112.526,59.2573 112.192,56.924 112.5,54.5C 111.5,54.5 110.5,54.5 109.5,54.5C 109.5,60.5 109.5,66.5 109.5,72.5C 108.521,69.3752 108.187,66.0419 108.5,62.5C 100.653,62.382 92.9866,62.382 85.5,62.5C 89.2066,57.7923 93.5399,53.7923 98.5,50.5 Z"/></g>
<g><path style="opacity:1" fill="#9dcaca" d="M 131.5,61.5 C 132.833,61.5 134.167,61.5 135.5,61.5C 135.5,62.5 135.5,63.5 135.5,64.5C 134.167,64.5 132.833,64.5 131.5,64.5C 131.5,63.5 131.5,62.5 131.5,61.5 Z"/></g>
<g><path style="opacity:1" fill="#94c7d2" d="M 165.5,57.5 C 167.833,57.5 170.167,57.5 172.5,57.5C 172.5,58.8333 172.5,60.1667 172.5,61.5C 170.167,61.5 167.833,61.5 165.5,61.5C 165.5,60.1667 165.5,58.8333 165.5,57.5 Z"/></g>
<g><path style="opacity:0.996" fill="#8dc2cd" d="M 146.5,57.5 C 148.857,57.3367 151.19,57.5034 153.5,58C 154.833,59 154.833,60 153.5,61C 151.19,61.4966 148.857,61.6633 146.5,61.5C 146.5,60.1667 146.5,58.8333 146.5,57.5 Z"/></g>
<g><path style="opacity:1" fill="#053112" d="M 125.5,71.5 C 124.399,72.5983 123.066,72.765 121.5,72C 119.85,69.1869 117.85,66.6869 115.5,64.5C 114.914,64.7093 114.414,65.0426 114,65.5C 113.503,67.8098 113.337,70.1432 113.5,72.5C 112.167,72.5 110.833,72.5 109.5,72.5C 109.5,66.5 109.5,60.5 109.5,54.5C 110.5,54.5 111.5,54.5 112.5,54.5C 112.192,56.924 112.526,59.2573 113.5,61.5C 115.607,59.4698 117.607,57.3031 119.5,55C 121.167,54.3333 122.833,54.3333 124.5,55C 122.226,56.7651 120.559,58.9318 119.5,61.5C 121.092,65.0891 123.092,68.4224 125.5,71.5 Z"/></g>
<g><path style="opacity:1" fill="#5aabcd" d="M 197.5,50.5 C 165.303,51.156 133.137,51.8227 101,52.5C 100.005,51.9341 99.172,51.2674 98.5,50.5C 113.119,40.0725 129.453,35.0725 147.5,35.5C 166.101,34.4818 182.768,39.4818 197.5,50.5 Z"/></g>
<g><path style="opacity:1" fill="#080502" d="M 46.5,193.5 C 47.1667,193.5 47.5,193.833 47.5,194.5C 33.994,195.167 20.3274,195.833 6.5,196.5C 6.62358,197.107 6.95691,197.44 7.5,197.5C 12.3429,201.51 16.6762,206.01 20.5,211C 16.213,216.289 11.5463,221.289 6.5,226C 15.1603,226.5 23.8269,226.666 32.5,226.5C 32.1718,221.125 32.5052,215.792 33.5,210.5C 38.1869,206.145 42.8536,201.812 47.5,197.5C 48.1667,197.5 48.8333,197.5 49.5,197.5C 52.2254,201.729 55.5587,205.562 59.5,209C 79.6709,209.829 99.6709,209.662 119.5,208.5C 139.5,208.5 159.5,208.5 179.5,208.5C 199.34,208.83 219.007,208.497 238.5,207.5C 242.212,204.789 245.212,201.456 247.5,197.5C 248.167,197.5 248.833,197.5 249.5,197.5C 255.79,201.95 261.957,206.617 268,211.5C 268.499,216.489 268.666,221.489 268.5,226.5C 277.173,226.666 285.84,226.5 294.5,226C 289.5,221 284.5,216 279.5,211C 284.035,206.297 288.702,201.797 293.5,197.5C 294.043,197.44 294.376,197.107 294.5,196.5C 279.515,195.501 264.515,195.167 249.5,195.5C 249.833,194.5 250.5,193.833 251.5,193.5C 267.5,193.5 283.5,193.5 299.5,193.5C 299.5,194.167 299.5,194.833 299.5,195.5C 293.424,200.069 287.758,205.236 282.5,211C 288.035,216.703 293.702,222.203 299.5,227.5C 299.5,227.833 299.5,228.167 299.5,228.5C 289.167,228.5 278.833,228.5 268.5,228.5C 268.5,233.5 268.5,238.5 268.5,243.5C 189.5,243.5 110.5,243.5 31.5,243.5C 31.5,238.5 31.5,233.5 31.5,228.5C 21.4778,228.832 11.4778,228.499 1.5,227.5C 7.16667,222.5 12.5,217.167 17.5,211.5C 12.1667,205.833 6.83333,200.167 1.5,194.5C 16.4852,193.501 31.4852,193.167 46.5,193.5 Z"/></g>
<g><path style="opacity:1" fill="#b69271" d="M 7.5,197.5 C 20.8333,196.167 34.1667,196.167 47.5,197.5C 42.8536,201.812 38.1869,206.145 33.5,210.5C 32.5052,215.792 32.1718,221.125 32.5,226.5C 23.8269,226.666 15.1603,226.5 6.5,226C 11.5463,221.289 16.213,216.289 20.5,211C 16.6762,206.01 12.3429,201.51 7.5,197.5 Z"/></g>
<g><path style="opacity:1" fill="#534433" d="M 249.5,195.5 C 264.515,195.167 279.515,195.501 294.5,196.5C 294.376,197.107 294.043,197.44 293.5,197.5C 278.833,196.167 264.167,196.167 249.5,197.5C 248.833,197.5 248.167,197.5 247.5,197.5C 247.833,196.5 248.5,195.833 249.5,195.5 Z"/></g>
<g><path style="opacity:1" fill="#554534" d="M 47.5,194.5 C 48.4013,195.29 49.0679,196.29 49.5,197.5C 48.8333,197.5 48.1667,197.5 47.5,197.5C 34.1667,196.167 20.8333,196.167 7.5,197.5C 6.95691,197.44 6.62358,197.107 6.5,196.5C 20.3274,195.833 33.994,195.167 47.5,194.5 Z"/></g>
<g><path style="opacity:1" fill="#b69271" d="M 249.5,197.5 C 264.167,196.167 278.833,196.167 293.5,197.5C 288.702,201.797 284.035,206.297 279.5,211C 284.5,216 289.5,221 294.5,226C 285.84,226.5 277.173,226.666 268.5,226.5C 268.666,221.489 268.499,216.489 268,211.5C 261.957,206.617 255.79,201.95 249.5,197.5 Z"/></g>
<g><path style="opacity:1" fill="#89cf3c" d="M 115.5,206.5 C 137.167,206.5 158.833,206.5 180.5,206.5C 180.167,207.167 179.833,207.833 179.5,208.5C 159.5,208.5 139.5,208.5 119.5,208.5C 118.005,208.011 116.671,207.345 115.5,206.5 Z"/></g>
<g><path style="opacity:1" fill="#683014" d="M 33.5,213.5 C 111.167,213.5 188.833,213.5 266.5,213.5C 266.5,222.833 266.5,232.167 266.5,241.5C 188.833,241.5 111.167,241.5 33.5,241.5C 33.5,232.167 33.5,222.833 33.5,213.5 Z"/></g>
<g><path style="opacity:0.999" fill="#ece6e2" d="M 60.5,218.5 C 65.0697,218.238 67.0697,220.404 66.5,225C 65.9409,232.604 62.7742,234.104 57,229.5C 55.6624,224.96 56.8291,221.293 60.5,218.5 Z"/></g>
<g><path style="opacity:0.999" fill="#ede6e2" d="M 151.5,219.5 C 154.777,219.216 157.943,219.549 161,220.5C 160.396,224.075 159.563,227.742 158.5,231.5C 156.783,230.332 156.116,228.665 156.5,226.5C 155.5,226.5 154.5,226.5 153.5,226.5C 153.5,228.5 153.5,230.5 153.5,232.5C 152.5,232.5 151.5,232.5 150.5,232.5C 150.739,228.158 151.073,223.824 151.5,219.5 Z"/></g>
<g><path style="opacity:0.999" fill="#e7ded9" d="M 189.5,219.5 C 190.725,220.152 191.392,221.319 191.5,223C 190.893,226.143 190.559,229.31 190.5,232.5C 189.5,232.5 188.5,232.5 187.5,232.5C 187.799,228.072 188.465,223.739 189.5,219.5 Z"/></g>
<g><path style="opacity:0.998" fill="#e9e1dc" d="M 199.5,218.5 C 200.5,218.5 201.5,218.5 202.5,218.5C 202.03,222.97 203.03,223.47 205.5,220C 206.5,219.333 207.5,219.333 208.5,220C 207.101,221.062 206.101,222.395 205.5,224C 206.406,226.791 207.073,229.624 207.5,232.5C 206.5,232.5 205.5,232.5 204.5,232.5C 203.534,224.779 202.2,224.779 200.5,232.5C 199.5,232.5 198.5,232.5 197.5,232.5C 197.95,227.798 198.617,223.132 199.5,218.5 Z"/></g>
<g><path style="opacity:1" fill="#e9e1dc" d="M 68.5,222.5 C 76.4149,221.238 78.5816,224.238 75,231.5C 73.6667,232.833 72.3333,232.833 71,231.5C 70.8038,233.286 69.9705,234.619 68.5,235.5C 67.5766,231.194 67.5766,226.861 68.5,222.5 Z"/></g>
<g><path style="opacity:0.999" fill="#efe9e6" d="M 87.5,222.5 C 90.0003,223.123 92.5003,223.457 95,223.5C 94.8481,226.447 94.6815,229.447 94.5,232.5C 93.5,232.5 92.5,232.5 91.5,232.5C 91.7233,230.658 92.0566,228.825 92.5,227C 92.1667,226.167 91.8333,225.333 91.5,224.5C 90.1319,226.637 89.1319,228.97 88.5,231.5C 87.5159,228.572 87.1826,225.572 87.5,222.5 Z"/></g>
<g><path style="opacity:0.998" fill="#ebe4e0" d="M 102.5,222.5 C 104.833,222.5 107.167,222.5 109.5,222.5C 109.5,225.833 109.5,229.167 109.5,232.5C 108.5,232.5 107.5,232.5 106.5,232.5C 107.205,229.756 107.205,227.089 106.5,224.5C 105.914,224.709 105.414,225.043 105,225.5C 104.503,227.81 104.337,230.143 104.5,232.5C 103.5,232.5 102.5,232.5 101.5,232.5C 101.616,229.14 101.949,225.807 102.5,222.5 Z"/></g>
<g><path style="opacity:1" fill="#f1edea" d="M 126.5,222.5 C 127.5,222.5 128.5,222.5 129.5,222.5C 128.637,224.895 128.637,227.229 129.5,229.5C 130.086,229.291 130.586,228.957 131,228.5C 131.495,226.527 131.662,224.527 131.5,222.5C 132.675,222.281 133.675,222.614 134.5,223.5C 133.607,226.084 133.274,228.751 133.5,231.5C 131.139,231.674 128.806,232.007 126.5,232.5C 126.5,229.167 126.5,225.833 126.5,222.5 Z"/></g>
<g><path style="opacity:0.998" fill="#ebe4df" d="M 136.5,222.5 C 144.869,222.143 146.535,225.31 141.5,232C 140.451,232.492 139.451,232.326 138.5,231.5C 137.571,232.689 137.238,234.022 137.5,235.5C 136.5,235.5 135.5,235.5 134.5,235.5C 134.982,231.127 135.648,226.794 136.5,222.5 Z"/></g>
<g><path style="opacity:0.999" fill="#ede6e2" d="M 163.5,222.5 C 165.062,224.372 166.062,226.705 166.5,229.5C 167.474,227.257 167.808,224.924 167.5,222.5C 168.5,222.5 169.5,222.5 170.5,222.5C 170.492,225.545 170.159,228.545 169.5,231.5C 167.193,231.986 165.027,231.986 163,231.5C 162.264,228.408 162.431,225.408 163.5,222.5 Z"/></g>
<g><path style="opacity:0.998" fill="#efeae6" d="M 172.5,222.5 C 174.201,222.966 175.701,222.966 177,222.5C 177.167,223 177.333,223.5 177.5,224C 175.069,226.313 174.069,229.146 174.5,232.5C 173.325,232.719 172.325,232.386 171.5,231.5C 172.407,228.579 172.74,225.579 172.5,222.5 Z"/></g>
<g><path style="opacity:0.999" fill="#ede7e3" d="M 218.5,222.5 C 221.119,222.232 223.619,222.565 226,223.5C 225.848,226.447 225.681,229.447 225.5,232.5C 224.325,232.719 223.325,232.386 222.5,231.5C 223.724,229.161 223.724,226.828 222.5,224.5C 221.914,224.709 221.414,225.043 221,225.5C 220.503,227.81 220.337,230.143 220.5,232.5C 219.325,232.719 218.325,232.386 217.5,231.5C 218.407,228.579 218.74,225.579 218.5,222.5 Z"/></g>
<g><path style="opacity:0.999" fill="#eee8e5" d="M 227.5,222.5 C 228.5,222.5 229.5,222.5 230.5,222.5C 230.332,227.532 231.332,227.699 233.5,223C 234.167,222.333 234.833,222.333 235.5,223C 233.811,226.879 231.978,230.712 230,234.5C 228.817,235.731 227.651,235.731 226.5,234.5C 227.737,233.719 228.737,232.719 229.5,231.5C 228.725,228.516 228.059,225.516 227.5,222.5 Z"/></g>
<g><path style="opacity:0.999" fill="#eae3de" d="M 79.5,222.5 C 83.938,221.425 85.938,223.092 85.5,227.5C 83.8333,227.5 82.1667,227.5 80.5,227.5C 80.281,228.675 80.6143,229.675 81.5,230.5C 82.7678,229.572 84.1011,229.405 85.5,230C 83.1496,233.051 80.6496,233.217 78,230.5C 77.1093,227.502 77.6093,224.836 79.5,222.5 Z"/></g>
<g><path style="opacity:1" fill="#ddd0c8" d="M 98.5,218.5 C 99.5,218.5 100.5,218.5 101.5,218.5C 100.356,223.033 99.6888,227.699 99.5,232.5C 98.5,232.5 97.5,232.5 96.5,232.5C 97.0373,227.814 97.704,223.147 98.5,218.5 Z"/></g>
<g><path style="opacity:1" fill="#6c3418" d="M 154.5,221.5 C 155.833,221.5 157.167,221.5 158.5,221.5C 158.5,222.5 158.5,223.5 158.5,224.5C 157.167,224.5 155.833,224.5 154.5,224.5C 154.5,223.5 154.5,222.5 154.5,221.5 Z"/></g>
<g><path style="opacity:0.999" fill="#efeae7" d="M 180.5,222.5 C 182.467,222.261 184.301,222.594 186,223.5C 186.43,226.192 186.263,228.859 185.5,231.5C 182.894,232.136 180.394,232.136 178,231.5C 177.785,227.872 179.619,225.872 183.5,225.5C 182.609,224.41 181.609,224.41 180.5,225.5C 179.438,224.575 179.438,223.575 180.5,222.5 Z"/></g>
<g><path style="opacity:0.999" fill="#ece5e1" d="M 210.5,222.5 C 214.938,221.425 216.938,223.092 216.5,227.5C 214.396,227.201 212.396,227.534 210.5,228.5C 210.833,229.5 211.5,230.167 212.5,230.5C 214.936,229.109 215.602,229.609 214.5,232C 210.663,233 208.663,231.5 208.5,227.5C 208.437,225.486 209.103,223.819 210.5,222.5 Z"/></g>
<g><path style="opacity:0.999" fill="#ece5e1" d="M 237.5,222.5 C 239.467,222.261 241.301,222.594 243,223.5C 243.797,226.721 243.297,229.721 241.5,232.5C 239.398,232.521 237.232,232.187 235,231.5C 234.785,227.872 236.619,225.872 240.5,225.5C 239.609,224.41 238.609,224.41 237.5,225.5C 236.438,224.575 236.438,223.575 237.5,222.5 Z"/></g>
<g><path style="opacity:1" fill="#6b3318" d="M 60.5,221.5 C 64.7966,222.288 65.63,224.621 63,228.5C 61.9887,229.337 60.8221,229.67 59.5,229.5C 59.4013,226.763 59.7347,224.096 60.5,221.5 Z"/></g>
<g><path style="opacity:1" fill="#723c23" d="M 71.5,224.5 C 73.9755,226.121 74.1422,228.121 72,230.5C 70.2002,228.635 70.0336,226.635 71.5,224.5 Z"/></g>
<g><path style="opacity:0.999" fill="#e0d3cc" d="M 117.5,220.5 C 120.999,220.259 121.332,221.092 118.5,223C 120.303,227.547 118.637,229.547 113.5,229C 115.167,229.333 116.833,229.667 118.5,230C 119.86,231.938 119.527,233.604 117.5,235C 115.5,235.667 113.5,235.667 111.5,235C 111.284,231.766 111.284,228.599 111.5,225.5C 113.417,223.568 115.417,221.901 117.5,220.5 Z"/></g>
<g><path style="opacity:1" fill="#734025" d="M 139.5,224.5 C 141.951,226.21 141.951,228.21 139.5,230.5C 138.306,228.484 138.306,226.484 139.5,224.5 Z"/></g>
<g><path style="opacity:1" fill="#6c3820" d="M 181.5,227.5 C 184.012,228.216 184.012,229.216 181.5,230.5C 180.438,229.575 180.438,228.575 181.5,227.5 Z"/></g>
<g><path style="opacity:1" fill="#6b351d" d="M 238.5,227.5 C 241.012,228.216 241.012,229.216 238.5,230.5C 237.438,229.575 237.438,228.575 238.5,227.5 Z"/></g>
</svg>
