<?xml version="1.0" encoding="UTF-8"?>
<!DOCTYPE svg PUBLIC "-//W3C//DTD SVG 1.1//EN" "http://www.w3.org/Graphics/SVG/1.1/DTD/svg11.dtd">
<svg xmlns="http://www.w3.org/2000/svg" version="1.1" width="275px" height="275px" style="shape-rendering:geometricPrecision; text-rendering:geometricPrecision; image-rendering:optimizeQuality; fill-rule:evenodd; clip-rule:evenodd" xmlns:xlink="http://www.w3.org/1999/xlink">
<g><path style="opacity:1" fill="#fd7625" d="M 121.5,-0.5 C 126.167,-0.5 130.833,-0.5 135.5,-0.5C 151.047,7.724 154.881,19.724 147,35.5C 143.24,39.6284 138.74,42.6284 133.5,44.5C 132.5,87.4948 132.167,130.495 132.5,173.5C 140.65,174.493 148.983,174.826 157.5,174.5C 157.828,162.988 157.495,151.654 156.5,140.5C 148.177,136.855 144.843,130.522 146.5,121.5C 151.302,111.065 158.969,108.231 169.5,113C 176.861,118.861 178.361,126.028 174,134.5C 171.933,137.07 169.433,139.07 166.5,140.5C 165.503,147.803 165.169,155.137 165.5,162.5C 172.982,163.492 180.648,163.825 188.5,163.5C 188.83,143.326 188.497,123.326 187.5,103.5C 174.146,99.4735 168.312,90.4735 170,76.5C 174.387,63.2203 183.553,57.387 197.5,59C 212.041,64.2464 217.541,74.4131 214,89.5C 210.883,97.6331 205.049,102.3 196.5,103.5C 196.5,125.833 196.5,148.167 196.5,170.5C 186.167,170.5 175.833,170.5 165.5,170.5C 165.5,204.833 165.5,239.167 165.5,273.5C 162.833,273.5 160.167,273.5 157.5,273.5C 157.5,243.167 157.5,212.833 157.5,182.5C 146.5,182.5 135.5,182.5 124.5,182.5C 124.5,136.167 124.5,89.8333 124.5,43.5C 123.5,43.5 122.5,43.5 121.5,43.5C 113.5,41.5 108.5,36.5 106.5,28.5C 106.392,23.1301 106.725,17.7968 107.5,12.5C 110.262,6.0702 114.928,1.73686 121.5,-0.5 Z M 126.5,7.5 C 134.803,7.55697 139.97,11.557 142,19.5C 141.616,32.1289 135.116,37.2956 122.5,35C 114.61,30.0839 112.443,23.2506 116,14.5C 118.701,10.7483 122.201,8.41498 126.5,7.5 Z M 204.5,89.5 C 202.833,90.5 201.5,91.8333 200.5,93.5C 188.163,98.2964 180.83,94.2964 178.5,81.5C 180.537,69.331 187.537,65.1644 199.5,69C 206.626,74.5272 208.293,81.3605 204.5,89.5 Z M 160.5,117.5 C 165.591,118.091 168.591,120.924 169.5,126C 168.239,132.915 164.239,135.249 157.5,133C 155.667,132.5 154.5,131.333 154,129.5C 152.305,123.213 154.472,119.213 160.5,117.5 Z"/></g>
<g><path style="opacity:0.749" fill="#ffae7b" d="M 107.5,12.5 C 106.725,17.7968 106.392,23.1301 106.5,28.5C 105.837,26.5274 105.504,24.3608 105.5,22C 105.328,18.5226 105.994,15.356 107.5,12.5 Z"/></g>
<g><path style="opacity:0.035" fill="#fff9f5" d="M 121.5,43.5 C 122.5,43.5 123.5,43.5 124.5,43.5C 124.5,89.8333 124.5,136.167 124.5,182.5C 124.5,182.833 124.5,183.167 124.5,183.5C 124.157,136.785 123.157,90.1185 121.5,43.5 Z"/></g>
<g><path style="opacity:1" fill="#fd7727" d="M 43.5,67.5 C 43.5,72.1667 43.5,76.8333 43.5,81.5C 40.6142,89.7227 34.9476,94.7227 26.5,96.5C 26.3334,126.169 26.5,155.835 27,185.5C 36.4701,184.177 45.9701,184.177 55.5,185.5C 56.4995,168.513 56.8328,151.513 56.5,134.5C 47.3332,131.513 43.8332,125.18 46,115.5C 52.0809,103.918 60.5809,101.752 71.5,109C 77.2182,115.474 77.7182,122.308 73,129.5C 71.1433,132.2 68.6433,133.866 65.5,134.5C 64.508,141.982 64.1746,149.648 64.5,157.5C 74.3478,157.827 84.0144,157.494 93.5,156.5C 93.833,134.823 93.4997,113.156 92.5,91.5C 83.8983,87.5692 80.7317,80.9026 83,71.5C 86.8895,63.9716 93.0562,60.8049 101.5,62C 110.978,65.789 114.478,72.6223 112,82.5C 110.278,87.056 107.111,90.056 102.5,91.5C 101.502,115.328 101.169,139.328 101.5,163.5C 88.9887,163.171 76.6554,163.505 64.5,164.5C 64.5,200.833 64.5,237.167 64.5,273.5C 61.8333,273.5 59.1667,273.5 56.5,273.5C 56.5,247.167 56.5,220.833 56.5,194.5C 44.011,193.505 31.3443,193.171 18.5,193.5C 18.8316,160.996 18.4982,128.662 17.5,96.5C 9.0757,94.409 3.0757,89.409 -0.5,81.5C -0.5,76.8333 -0.5,72.1667 -0.5,67.5C 7.61918,51.6353 19.6192,47.802 35.5,56C 39.5821,58.9046 42.2487,62.7379 43.5,67.5 Z M 36.5,75.5 C 35.5418,77.3024 34.8751,79.3024 34.5,81.5C 28.8954,88.8919 21.8954,90.3919 13.5,86C 5.5,78.3333 5.5,70.6667 13.5,63C 26.3253,57.7452 33.9919,61.9119 36.5,75.5 Z M 105.5,80.5 C 103.833,81.5 102.5,82.8333 101.5,84.5C 91.9984,85.5074 88.4984,81.5074 91,72.5C 95.9673,67.293 100.634,67.6263 105,73.5C 105.497,75.8098 105.663,78.1432 105.5,80.5 Z M 58.5,128.5 C 57.7095,127.599 56.7095,126.932 55.5,126.5C 51.0471,121.262 51.7137,116.762 57.5,113C 65.6154,111.782 69.1154,115.282 68,123.5C 65.961,127.136 62.7943,128.802 58.5,128.5 Z"/></g>
<g><path style="opacity:0.859" fill="#ffb07f" d="M 43.5,67.5 C 44.2663,69.6843 44.9329,72.0177 45.5,74.5C 44.9329,76.9823 44.2663,79.3157 43.5,81.5C 43.5,76.8333 43.5,72.1667 43.5,67.5 Z"/></g>
<g><path style="opacity:0.941" fill="#ffb180" d="M 36.5,75.5 C 36.9465,78.0101 36.2798,80.0101 34.5,81.5C 34.8751,79.3024 35.5418,77.3024 36.5,75.5 Z"/></g>
<g><path style="opacity:0.757" fill="#ffb07d" d="M 105.5,80.5 C 105.167,82.8333 103.833,84.1667 101.5,84.5C 102.5,82.8333 103.833,81.5 105.5,80.5 Z"/></g>
<g><path style="opacity:0.878" fill="#ffa46b" d="M 204.5,89.5 C 204.167,91.8333 202.833,93.1667 200.5,93.5C 201.5,91.8333 202.833,90.5 204.5,89.5 Z"/></g>
<g><path style="opacity:0.459" fill="#fec098" d="M 17.5,96.5 C 18.4982,128.662 18.8316,160.996 18.5,193.5C 31.3443,193.171 44.011,193.505 56.5,194.5C 43.5,194.5 30.5,194.5 17.5,194.5C 17.5,161.833 17.5,129.167 17.5,96.5 Z"/></g>
<g><path style="opacity:0.945" fill="#ffb78a" d="M 55.5,126.5 C 56.7095,126.932 57.7095,127.599 58.5,128.5C 56.8212,128.715 55.8212,128.048 55.5,126.5 Z"/></g>
<g><path style="opacity:0.199" fill="#fedec9" d="M 156.5,140.5 C 157.495,151.654 157.828,162.988 157.5,174.5C 148.983,174.826 140.65,174.493 132.5,173.5C 140.5,173.5 148.5,173.5 156.5,173.5C 156.5,162.5 156.5,151.5 156.5,140.5 Z"/></g>
<g><path style="opacity:0.749" fill="#ffaf7b" d="M 65.5,134.5 C 65.5,141.833 65.5,149.167 65.5,156.5C 74.8333,156.5 84.1667,156.5 93.5,156.5C 84.0144,157.494 74.3478,157.827 64.5,157.5C 64.1746,149.648 64.508,141.982 65.5,134.5 Z"/></g>
<g><path style="opacity:0.702" fill="#ffbf96" d="M 187.5,103.5 C 188.497,123.326 188.83,143.326 188.5,163.5C 180.648,163.825 172.982,163.492 165.5,162.5C 172.833,162.5 180.167,162.5 187.5,162.5C 187.5,142.833 187.5,123.167 187.5,103.5 Z"/></g>
<g><path style="opacity:0.663" fill="#ffbf96" d="M 102.5,91.5 C 102.5,115.833 102.5,140.167 102.5,164.5C 90.1667,164.5 77.8333,164.5 65.5,164.5C 65.1667,164.5 64.8333,164.5 64.5,164.5C 76.6554,163.505 88.9887,163.171 101.5,163.5C 101.169,139.328 101.502,115.328 102.5,91.5 Z"/></g>
<g><path style="opacity:0.063" fill="#fff5ef" d="M 64.5,164.5 C 64.8333,164.5 65.1667,164.5 65.5,164.5C 65.5,201.167 65.5,237.833 65.5,274.5C 62.5,274.5 59.5,274.5 56.5,274.5C 56.5,274.167 56.5,273.833 56.5,273.5C 59.1667,273.5 61.8333,273.5 64.5,273.5C 64.5,237.167 64.5,200.833 64.5,164.5 Z"/></g>
<g><path style="opacity:0.2" fill="#fee4d3" d="M 124.5,183.5 C 124.5,183.167 124.5,182.833 124.5,182.5C 135.5,182.5 146.5,182.5 157.5,182.5C 157.5,212.833 157.5,243.167 157.5,273.5C 160.167,273.5 162.833,273.5 165.5,273.5C 165.5,273.833 165.5,274.167 165.5,274.5C 162.5,274.5 159.5,274.5 156.5,274.5C 156.5,244.167 156.5,213.833 156.5,183.5C 145.833,183.5 135.167,183.5 124.5,183.5 Z"/></g>
<g><path style="opacity:1" fill="#fe7a2b" d="M 115.5,239.5 C 114.505,250.654 114.172,261.988 114.5,273.5C 112.167,273.5 109.833,273.5 107.5,273.5C 107.828,261.988 107.495,250.654 106.5,239.5C 90.3581,233.597 85.5248,222.597 92,206.5C 100.73,195.802 111.23,193.635 123.5,200C 133.274,208.694 135.108,218.86 129,230.5C 125.526,235.146 121.026,238.146 115.5,239.5 Z M 106.5,204.5 C 122.267,204.368 127.434,211.701 122,226.5C 116.146,232.077 109.646,232.91 102.5,229C 96.9231,223.146 96.0898,216.646 100,209.5C 101.965,207.45 104.132,205.783 106.5,204.5 Z"/></g>
<g><path style="opacity:0.345" fill="#fecaa9" d="M 106.5,239.5 C 107.495,250.654 107.828,261.988 107.5,273.5C 109.833,273.5 112.167,273.5 114.5,273.5C 114.172,261.988 114.505,250.654 115.5,239.5C 115.5,251.167 115.5,262.833 115.5,274.5C 112.5,274.5 109.5,274.5 106.5,274.5C 106.5,262.833 106.5,251.167 106.5,239.5 Z"/></g>
</svg>
