<?xml version="1.0" encoding="UTF-8" standalone="no"?>
<svg
   version="1.0"
   id="svg2"
   width="55px"
   height="55px"
   viewBox="10 -1 90 119"
   xmlns="http://www.w3.org/2000/svg"
   xmlns:inkscape="http://www.inkscape.org/namespaces/inkscape"
   xmlns:sodipodi="http://sodipodi.sourceforge.net/DTD/sodipodi-0.dtd"
   xmlns:xlink="http://www.w3.org/1999/xlink">
  <defs>
    <!-- Gradients adjusted for new size -->
    <linearGradient id="linearGradient1478" gradientUnits="userSpaceOnUse" x1="10" y1="5" x2="60" y2="25">
      <stop style="stop-color:#5a9fd4;stop-opacity:1;" offset="0" />
      <stop style="stop-color:#306998;stop-opacity:1;" offset="1" />
    </linearGradient>
    <linearGradient id="linearGradient1475" gradientUnits="userSpaceOnUse" x1="0" y1="50" x2="50" y2="0">
      <stop style="stop-color:#ffd43b;stop-opacity:1;" offset="0" />
      <stop style="stop-color:#ffe873;stop-opacity:1" offset="1" />
    </linearGradient>
    <radialGradient id="radialGradient1480" cx="30" cy="55" fx="30" fy="55" r="15" gradientUnits="userSpaceOnUse">
      <stop style="stop-color:#b8b8b8;stop-opacity:0.5;" offset="0" />
      <stop style="stop-color:#7f7f7f;stop-opacity:0;" offset="1" />
    </radialGradient>
  </defs>
  <!-- Python Logo Path -->
  <path style="fill:url(#linearGradient1478);fill-opacity:1"
     d="M 54.9,0 C 50.3,0 46,0.4 42.1,1.1 30.8,3.1 28.7,7.3 28.7,15 v 10.2 h 26.8 v 3.4 H 28.7 18.6 c -7.8,0 -14.6,4.7 -16.7,13.6 -2.5,10.2 -2.6,16.6 0,27.2 1.9,7.9 6.5,13.6 14.3,13.6 h 9.2 v -12.3 c 0,-8.8 7.7,-16.7 16.8,-16.7 h 26.8 c 7.5,0 13.4,-6.1 13.4,-13.6 V 13.9 c 0,-7.3 -6.1,-12.7 -13.4,-13.9 C 64.3,0.3 59.5,-0 54.9,0 Z m -14.5,8.2 c 2.8,0 5,2.3 5,5.1 0,2.8 -2.3,5.1 -5,5.1 -2.8,0 -5,-2.3 -5,-5.1 0,-2.8 2.3,-5.1 5,-5.1 z"
     />
  <path style="fill:url(#linearGradient1475);fill-opacity:1"
     d="m 85.6,28.7 v 11.9 c 0,9.2 -7.8,17 -16.7,17 h -26.8 c -7.3,0 -13.4,6.3 -13.4,13.6 v 25.5 c 0,7.3 6.3,11.5 13.4,13.6 8.5,2.5 16.6,2.9 26.8,0 6.7,-1.9 13.4,-5.9 13.4,-13.6 V 86.5 h -26.8 v -3.4 h 26.8 13.4 c 7.8,0 10.7,-5.4 13.4,-13.6 2.8,-8.4 2.7,-16.5 0,-27.2 -1.9,-7.8 -5.6,-13.6 -13.4,-13.6 z m -15.1,64.7 c 2.8,0 5,2.3 5,5.1 0,2.8 -2.3,5.1 -5,5.1 -2.8,0 -5,-2.3 -5,-5.1 0,-2.8 2.3,-5.1 5,-5.1 z"
     />
  <ellipse style="opacity:0.444;fill:url(#radialGradient1480);fill-opacity:1" cx="55.8" cy="75.2" rx="17.9" ry="3.5" />
</svg>
