<?xml version="1.0" encoding="UTF-8"?>
<!DOCTYPE svg PUBLIC "-//W3C//DTD SVG 1.1//EN" "http://www.w3.org/Graphics/SVG/1.1/DTD/svg11.dtd">
<svg xmlns="http://www.w3.org/2000/svg" version="1.1" width="388px" height="407px" style="shape-rendering:geometricPrecision; text-rendering:geometricPrecision; image-rendering:optimizeQuality; fill-rule:evenodd; clip-rule:evenodd" xmlns:xlink="http://www.w3.org/1999/xlink">
<g><path style="opacity:0.968" fill="#0704fe" d="M 144.5,46.5 C 166.167,47.8333 187.833,47.8333 209.5,46.5C 213.52,72.3524 228.187,88.5191 253.5,95C 261.447,96.2748 269.447,96.7748 277.5,96.5C 278.289,140.984 274.123,184.984 265,228.5C 257.336,264.48 242.67,297.147 221,326.5C 208.439,342.236 193.606,355.236 176.5,365.5C 140.621,342.15 115.454,310.15 101,269.5C 85.8821,226.128 77.8821,181.461 77,135.5C 76.5001,122.504 76.3334,109.504 76.5,96.5C 113.374,98.7625 136.041,82.0958 144.5,46.5 Z"/></g>
<g><path style="opacity:1" fill="#fbfafb" d="M 149.5,67.5 C 167.812,68.2679 186.146,68.2679 204.5,67.5C 207.29,88.7924 218.957,102.626 239.5,109C 246.786,110.186 254.119,110.686 261.5,110.5C 262.016,149.948 258.183,188.948 250,227.5C 241.784,269.113 222.284,304.28 191.5,333C 186.671,336.494 181.838,339.994 177,343.5C 146.531,322.607 125.197,294.607 113,259.5C 97.7338,211.042 90.9005,161.375 92.5,110.5C 123.967,112.336 142.967,98.0026 149.5,67.5 Z"/></g>
<g><path style="opacity:1" fill="#ff0904" d="M 216.5,113.5 C 220.182,113.335 223.848,113.501 227.5,114C 230.663,115.48 232.496,117.98 233,121.5C 234.11,127.426 233.444,133.092 231,138.5C 221.962,145.87 213.962,154.204 207,163.5C 205.989,164.337 204.822,164.67 203.5,164.5C 204.136,160.219 205.636,156.219 208,152.5C 210.977,149.869 213.477,146.869 215.5,143.5C 212.106,142.777 208.772,143.277 205.5,145C 186.806,151.756 170.306,161.923 156,175.5C 153.752,178.328 151.752,181.328 150,184.5C 147.838,192.161 150.671,195.828 158.5,195.5C 174.127,193.712 189.794,193.212 205.5,194C 240.352,197.205 249.186,214.038 232,244.5C 209.694,266.072 183.194,279.906 152.5,286C 134.157,290.324 127.323,283.491 132,265.5C 135.115,257.066 140.949,252.733 149.5,252.5C 147.322,255.177 144.989,257.677 142.5,260C 166.972,255.099 189.638,245.766 210.5,232C 216.314,227.195 220.98,221.528 224.5,215C 220.167,210.571 214.833,208.238 208.5,208C 202.5,207.333 196.5,207.333 190.5,208C 174.229,212.12 157.896,212.453 141.5,209C 136.266,205.692 133.433,200.859 133,194.5C 129.188,179.005 132.521,165.338 143,153.5C 163.981,133.758 188.481,120.425 216.5,113.5 Z"/></g>
</svg>
